<svg width="34" height="34" fill="none" xmlns="http://www.w3.org/2000/svg"><path fill-rule="evenodd" clip-rule="evenodd" d="M5.98 15.947s2.815.657 2.844.17c-1.673-.458-5.038-.062-6.484-4.274 2.577-1.951 10.144-1.432 11.036-2.034.342-.231-1.397-.016-1.627-.246 2.346-2.692 5.31-3.405 5.844-3.53 1.152-.271 3.67.574 4.921-.28.918-.626 4.968-3.611 6.61-4.726 1.002-.753 1.032-.138 1.269.491.328.873 1.027 2.676.614 3.517-2.043 1.896.888 2.263.638 8.622-1.17-3.404-2.933-4.511-3.54-5.27-.147.117-.226.226-.386.443-2.453 2.987-.124 2.317-.314 6.211-.97-2.379-1.554-2.357-2.186-3.231a6.748 6.748 0 0 1-.273.326c-1.52 1.812-4.436 4.963-4.457 5.325-.014.237 3.893 5.927 3.95 6.02.241.031 2.276-1.599 2.595-2.892-.274 3.878-2.567 2.972-.45 6.184.15.184.196.32.358.535 1.66-1.027 2.977-2.58 4.283-4.852-.65 6.418-3.462 6.111-2.872 7.066.095.153-.393.688-1.202.714-.635.02-8.338-5.69-8.338-5.69s-3.208 6.21-8.842 8.774c3.018-6.757.673-9.645.673-9.645s-1.551 2.842-6.213 3.997C7.77 24.217 5.98 15.946 5.98 15.946Zm8.09-3.532c.635-2.712 1.849-3.29 3.21-3.496 1.362-.206 2.871-.04 4.095-1.264-2.006 6.35-5.794 3.25-7.305 4.76Z" fill="#F6F6EB"/></svg>