<svg viewBox="0 0 8000 2250" xmlns="http://www.w3.org/2000/svg" fill-rule="evenodd" clip-rule="evenodd" stroke-linejoin="round" stroke-miterlimit="2"><path d="M0 0v2250h8000V0H0z" fill="#204880"/><path d="M2912.35 1755.46c0-3.1 1.05-5.55 3.15-7.35 2.1-1.8 4.9-2.7 8.4-2.7s6.35.9 8.55 2.7c2.2 1.8 3.3 4.25 3.3 7.35 0 3-1.1 5.4-3.3 7.2-2.2 1.8-5.05 2.7-8.55 2.7-3.5 0-6.3-.9-8.4-2.7-2.1-1.8-3.15-4.2-3.15-7.2zM2959.45 1755.46c0-3.1 1.05-5.55 3.15-7.35 2.1-1.8 4.9-2.7 8.4-2.7s6.35.9 8.55 2.7c2.2 1.8 3.3 4.25 3.3 7.35 0 3-1.1 5.4-3.3 7.2-2.2 1.8-5.05 2.7-8.55 2.7-3.5 0-6.3-.9-8.4-2.7-2.1-1.8-3.15-4.2-3.15-7.2zM3006.55 1755.46c0-3.1 1.05-5.55 3.15-7.35 2.1-1.8 4.9-2.7 8.4-2.7s6.35.9 8.55 2.7c2.2 1.8 3.3 4.25 3.3 7.35 0 3-1.1 5.4-3.3 7.2-2.2 1.8-5.05 2.7-8.55 2.7-3.5 0-6.3-.9-8.4-2.7-2.1-1.8-3.15-4.2-3.15-7.2zM3353.5 1764.16h-49.65v-9.6h17.1v-84.6l-17.7 9.3-4.05-7.35 21.75-12.75h15.75v95.4h16.8v9.6zM3643.75 1684.21h-14.4v-16.65c3.9-3 8.6-5.4 14.1-7.2 5.5-1.8 11.55-2.7 18.15-2.7 5.6 0 10.45.7 14.55 2.1 4.1 1.4 7.475 3.275 10.125 5.625 2.65 2.35 4.6 5.075 5.85 8.175 1.25 3.1 1.875 6.4 1.875 9.9 0 6.3-1.55 12.6-4.65 18.9-3.1 6.3-7 12.25-11.7 17.85-4.7 5.6-9.85 10.75-15.45 15.45-5.6 4.7-10.95 8.7-16.05 12l-3.3 2.1c-.8.5-1.6 1.025-2.4 1.575-.8.55-1.35.925-1.65 1.125v.6l9.75-.9h34.8l3-3v-14.4h9.6v29.4h-68.1v-12.6c2.6-1.5 5.625-3.5 9.075-6 3.45-2.5 7.025-5.4 10.725-8.7 3.7-3.3 7.35-6.925 10.95-10.875 3.6-3.95 6.8-8.1 9.6-12.45s5.075-8.8 6.825-13.35c1.75-4.55 2.625-9.125 2.625-13.725 0-2.9-.425-5.6-1.275-8.1-.85-2.5-2.1-4.7-3.75-6.6-1.65-1.9-3.7-3.375-6.15-4.425-2.45-1.05-5.225-1.575-8.325-1.575-3.3 0-6.025.25-8.175.75-2.15.5-4.225 1.15-6.225 1.95v15.75zM3995.5 1757.56c3.7 0 7.05-.575 10.05-1.725 3-1.15 5.6-2.725 7.8-4.725 2.2-2 3.9-4.325 5.1-6.975 1.2-2.65 1.8-5.525 1.8-8.625 0-3.6-.65-6.775-1.95-9.525-1.3-2.75-3.075-5.05-5.325-6.9-2.25-1.85-4.875-3.25-7.875-4.2-3-.95-6.2-1.425-9.6-1.425h-10.65v-10.2l33.75-32.4v-.6l-9 .9h-30.15l-3 3v12h-9.6v-27h64.8v11.7l-28.2 26.4-5.925 5.4c-.75.7-1.225 1.1-1.425 1.2v.3c.1 0 .45-.05 1.05-.15.6-.1 1.25-.25 1.95-.45.8-.2 1.7-.35 2.7-.45 5.3.2 10.1.975 14.4 2.325 4.3 1.35 8 3.3 11.1 5.85a25.48 25.48 0 017.125 9.3c1.65 3.65 2.475 7.875 2.475 12.675 0 5-1.075 9.5-3.225 13.5-2.15 4-5.075 7.4-8.775 10.2-3.7 2.8-8.05 4.95-13.05 6.45s-10.35 2.25-16.05 2.25c-2.6 0-5.375-.2-8.325-.6-2.95-.4-5.825-.925-8.625-1.575-2.8-.65-5.425-1.45-7.875-2.4s-4.475-2.025-6.075-3.225v-17.7h14.4v13.35c1.4 1 3.575 1.925 6.525 2.775 2.95.85 6.175 1.275 9.675 1.275zM4357.15 1651.66h9.6v19.5H4321v28.5h9.6c5.6 0 10.75.7 15.45 2.1 4.7 1.4 8.725 3.4 12.075 6 3.35 2.6 5.95 5.85 7.8 9.75 1.85 3.9 2.775 8.3 2.775 13.2 0 5.8-1.125 10.875-3.375 15.225s-5.225 8-8.925 10.95c-3.7 2.95-7.975 5.15-12.825 6.6a51.828 51.828 0 01-14.925 2.175c-4.6 0-9.1-.5-13.5-1.5s-8.2-2.65-11.4-4.95v-16.05h14.4v13.05c1.1.2 2.6.475 4.5.825s3.85.525 5.85.525c3.7 0 7.05-.575 10.05-1.725 3-1.15 5.575-2.775 7.725-4.875 2.15-2.1 3.8-4.575 4.95-7.425 1.15-2.85 1.725-6.025 1.725-9.525 0-4-.8-7.425-2.4-10.275-1.6-2.85-3.8-5.2-6.6-7.05-2.8-1.85-6.075-3.2-9.825-4.05-3.75-.85-7.775-1.275-12.075-1.275h-10.65v-52.2h42.75l3-3v-4.5zM4636.3 1740.61c0-3.4.625-6.625 1.875-9.675 1.25-3.05 3-5.85 5.25-8.4 2.25-2.55 4.875-4.85 7.875-6.9 3-2.05 6.25-3.825 9.75-5.325-6.3-2.9-11.275-6.4-14.925-10.5-3.65-4.1-5.475-9.45-5.475-16.05 0-3.9.775-7.45 2.325-10.65 1.55-3.2 3.775-5.975 6.675-8.325 2.9-2.35 6.425-4.175 10.575-5.475 4.15-1.3 8.775-1.95 13.875-1.95 10 0 17.775 2.225 23.325 6.675 5.55 4.45 8.325 10.175 8.325 17.175 0 5.8-1.875 11.125-5.625 15.975s-8.875 8.475-15.375 10.875c7.9 3.8 14.125 8.075 18.675 12.825 4.55 4.75 6.825 10.625 6.825 17.625 0 3.8-.825 7.35-2.475 10.65-1.65 3.3-4.1 6.2-7.35 8.7-3.25 2.5-7.225 4.475-11.925 5.925-4.7 1.45-10.1 2.175-16.2 2.175s-11.4-.7-15.9-2.1c-4.5-1.4-8.25-3.25-11.25-5.55s-5.225-5-6.675-8.1c-1.45-3.1-2.175-6.3-2.175-9.6zm58.5.6c0-3.4-.75-6.45-2.25-9.15s-3.525-5.125-6.075-7.275c-2.55-2.15-5.45-4.125-8.7-5.925-3.25-1.8-6.675-3.45-10.275-4.95-3.1 1.7-5.7 3.575-7.8 5.625-2.1 2.05-3.775 4.2-5.025 6.45-1.25 2.25-2.125 4.475-2.625 6.675s-.75 4.25-.75 6.15c0 2.4.4 4.8 1.2 7.2.8 2.4 2.075 4.55 3.825 6.45 1.75 1.9 4.05 3.45 6.9 4.65 2.85 1.2 6.325 1.8 10.425 1.8 3.5 0 6.575-.525 9.225-1.575 2.65-1.05 4.85-2.4 6.6-4.05s3.075-3.55 3.975-5.7c.9-2.15 1.35-4.275 1.35-6.375zm-38.7-59.55c0 3 .6 5.675 1.8 8.025 1.2 2.35 2.825 4.425 4.875 6.225 2.05 1.8 4.425 3.45 7.125 4.95s5.55 2.9 8.55 4.2c4.7-3.4 7.925-6.775 9.675-10.125 1.75-3.35 2.625-7.075 2.625-11.175 0-6.2-1.475-10.975-4.425-14.325-2.95-3.35-7.125-5.025-12.525-5.025-3 0-5.6.5-7.8 1.5s-4.025 2.3-5.475 3.9a16.532 16.532 0 00-3.3 5.475 18.411 18.411 0 00-1.125 6.375zM4970.05 1755.46c0-3.1 1.05-5.55 3.15-7.35 2.1-1.8 4.9-2.7 8.4-2.7s6.35.9 8.55 2.7c2.2 1.8 3.3 4.25 3.3 7.35 0 3-1.1 5.4-3.3 7.2-2.2 1.8-5.05 2.7-8.55 2.7-3.5 0-6.3-.9-8.4-2.7-2.1-1.8-3.15-4.2-3.15-7.2zM5017.15 1755.46c0-3.1 1.05-5.55 3.15-7.35 2.1-1.8 4.9-2.7 8.4-2.7s6.35.9 8.55 2.7c2.2 1.8 3.3 4.25 3.3 7.35 0 3-1.1 5.4-3.3 7.2-2.2 1.8-5.05 2.7-8.55 2.7-3.5 0-6.3-.9-8.4-2.7-2.1-1.8-3.15-4.2-3.15-7.2zM5064.25 1755.46c0-3.1 1.05-5.55 3.15-7.35 2.1-1.8 4.9-2.7 8.4-2.7s6.35.9 8.55 2.7c2.2 1.8 3.3 4.25 3.3 7.35 0 3-1.1 5.4-3.3 7.2-2.2 1.8-5.05 2.7-8.55 2.7-3.5 0-6.3-.9-8.4-2.7-2.1-1.8-3.15-4.2-3.15-7.2z" fill="#f4f4f5" fill-rule="nonzero"/><path d="M6356.16 1317.37l-269.751-833.333-271.402 833.333h541.153zM4959.19 1317.37l-166.7-514.981-167.72 514.981h334.42zM3768.95 1317.37l-103.051-318.352-103.681 318.352h206.732zM2706.39 1317.37l-63.649-196.629-64.039 196.629h127.688zM1643.84 1317.37l39.402-121.723 39.643 121.723h-79.045z" fill="#94c7bf"/></svg>