<?xml version="1.0" standalone="no"?>
<!DOCTYPE svg PUBLIC "-//W3C//DTD SVG 20010904//EN"
 "http://www.w3.org/TR/2001/REC-SVG-20010904/DTD/svg10.dtd">
<svg version="1.0" xmlns="http://www.w3.org/2000/svg"
 width="700.000000pt" height="700.000000pt" viewBox="0 0 700.000000 700.000000"
 preserveAspectRatio="xMidYMid meet">
<metadata>
Created by potrace 1.14, written by Peter Selinger 2001-2017
</metadata>
<g transform="translate(0.000000,700.000000) scale(0.100000,-0.100000)"
fill="#000000" stroke="none">
<path d="M6092 6845 c-49 -21 -224 -143 -786 -548 -663 -476 -699 -501 -776
-527 -92 -32 -269 -37 -551 -16 -277 21 -344 14 -539 -50 -246 -82 -518 -230
-725 -394 -120 -96 -297 -272 -285 -284 5 -5 78 -13 161 -17 83 -4 155 -11
161 -17 6 -6 -6 -15 -39 -25 -85 -28 -144 -34 -608 -67 -706 -50 -1030 -96
-1301 -185 -99 -32 -242 -99 -296 -137 l-27 -19 20 -52 c133 -336 343 -558
640 -676 103 -40 157 -53 418 -101 124 -23 231 -45 239 -49 12 -7 11 -11 -8
-21 -34 -18 -209 -7 -392 25 -81 14 -151 25 -156 25 -6 0 -4 -28 3 -62 17 -79
51 -351 67 -528 15 -177 15 -616 0 -755 -52 -462 -172 -803 -354 -1011 -17
-19 -29 -37 -26 -39 15 -15 318 91 483 169 284 135 582 367 721 562 25 35 51
64 58 64 16 0 89 -154 115 -245 67 -230 76 -534 25 -835 -34 -198 -113 -470
-213 -727 -28 -73 -51 -137 -51 -143 0 -23 263 124 445 248 222 151 419 326
678 600 192 204 399 478 584 774 l98 157 25 -16 c14 -9 201 -143 415 -298 603
-434 886 -630 1119 -773 88 -54 94 -56 171 -60 73 -3 85 -1 135 25 72 38 102
81 89 128 -13 45 -4 61 90 160 152 160 206 234 281 382 60 122 121 296 155
447 27 123 76 418 70 425 -2 2 -17 -18 -32 -44 -122 -209 -329 -487 -464 -625
-126 -129 -342 -300 -378 -300 -30 0 -197 287 -236 405 -41 123 -35 157 65
356 117 232 157 350 175 514 l6 60 -44 -77 c-59 -102 -126 -185 -233 -288 -96
-92 -219 -190 -240 -190 -17 0 -53 53 -417 597 -311 466 -390 589 -401 629 -8
27 27 79 167 246 148 177 774 895 787 903 15 9 40 -12 130 -110 130 -143 177
-211 248 -357 37 -75 71 -137 76 -137 16 -2 -2 268 -23 354 -11 44 -43 143
-72 220 -50 130 -53 146 -54 230 0 85 2 94 38 165 44 84 153 241 218 314 l44
48 136 -139 c169 -172 222 -237 321 -388 77 -117 192 -339 238 -460 13 -33 27
-64 32 -69 20 -23 1 372 -27 579 -24 171 -70 340 -158 580 -69 191 -81 231
-85 302 -5 97 7 130 93 237 81 102 90 156 56 333 -21 109 -104 369 -158 500
-47 111 -71 128 -141 98z m-1727 -1522 c-43 -121 -129 -297 -189 -387 -99
-148 -252 -275 -398 -330 -93 -35 -157 -44 -403 -56 -268 -13 -341 -24 -412
-61 -31 -16 -58 -28 -60 -25 -3 2 12 53 32 113 88 266 206 428 371 511 95 48
191 69 444 97 284 32 422 72 553 161 37 25 70 51 73 56 3 5 8 7 11 4 3 -3 -7
-41 -22 -83z"/>
</g>
</svg>
