<?xml version="1.0" standalone="no"?>
<!DOCTYPE svg PUBLIC "-//W3C//DTD SVG 20010904//EN"
 "http://www.w3.org/TR/2001/REC-SVG-20010904/DTD/svg10.dtd">
<svg version="1.0" xmlns="http://www.w3.org/2000/svg"
 width="700.000000pt" height="700.000000pt" viewBox="0 0 700.000000 700.000000"
 preserveAspectRatio="xMidYMid meet">
<metadata>
Created by potrace 1.11, written by Peter Selinger 2001-2013
</metadata>
<g transform="translate(0.000000,700.000000) scale(0.100000,-0.100000)"
fill="#000000" stroke="none">
<path d="M6420 5470 l-135 -79 -485 -1 c-584 0 -684 -9 -903 -81 -186 -61
-340 -153 -479 -287 -213 -205 -318 -451 -318 -741 0 -196 40 -382 115 -538
85 -175 213 -318 395 -438 184 -122 302 -176 715 -328 391 -144 496 -191 611
-272 71 -51 167 -151 193 -204 51 -99 68 -256 41 -372 -40 -174 -178 -303
-380 -356 -90 -23 -297 -23 -407 0 -184 39 -377 125 -540 240 -149 106 -339
299 -456 464 -90 127 -194 332 -241 471 -21 62 -25 67 -54 70 -21 2 -32 -1
-32 -10 0 -7 16 -317 35 -688 19 -371 35 -678 35 -682 0 -11 206 -74 315 -97
383 -78 919 -109 1180 -68 375 59 693 203 917 416 193 183 303 386 344 637 23
144 15 355 -20 488 -84 322 -298 555 -681 741 -160 78 -241 109 -565 220 -310
106 -407 144 -530 205 -176 88 -286 194 -326 312 -20 61 -22 192 -4 270 62
266 312 412 632 369 298 -40 537 -167 788 -420 123 -124 197 -217 290 -364 39
-62 64 -93 79 -95 l21 -3 0 650 c0 358 -3 651 -7 650 -5 0 -69 -36 -143 -79z"/>
<path d="M2475 5383 c-489 -39 -857 -143 -1208 -341 -386 -219 -692 -547 -893
-957 -196 -402 -286 -851 -271 -1355 16 -531 172 -1026 392 -1240 l46 -45 272
39 c149 22 283 42 295 46 26 6 101 124 280 440 352 623 657 1304 859 1920 49
151 138 458 148 514 19 100 11 -8 -30 -404 l-45 -434 0 -1018 0 -1018 752 0
751 0 -20 23 c-11 12 -142 164 -291 339 l-272 316 0 1379 0 1378 150 213 149
212 -512 -2 c-282 -1 -530 -3 -552 -5z m-145 -284 c0 -330 -244 -1178 -573
-1989 -242 -598 -437 -970 -508 -970 -39 0 -85 95 -113 233 -64 307 -79 996
-31 1372 105 826 450 1298 1020 1399 44 8 108 15 143 15 l62 1 0 -61z"/>
</g>
</svg>
