<?xml version="1.0" standalone="no"?>
<!DOCTYPE svg PUBLIC "-//W3C//DTD SVG 20010904//EN"
 "http://www.w3.org/TR/2001/REC-SVG-20010904/DTD/svg10.dtd">
<svg version="1.0" xmlns="http://www.w3.org/2000/svg"
 width="700.000000pt" height="700.000000pt" viewBox="0 0 700.000000 700.000000"
 preserveAspectRatio="xMidYMid meet">
<metadata>
Created by potrace 1.11, written by Peter Selinger 2001-2013
</metadata>
<g transform="translate(0.000000,700.000000) scale(0.100000,-0.100000)"
fill="#000000" stroke="none">
<path d="M6075 6837 c-75 -40 -237 -155 -997 -704 -224 -161 -432 -309 -463
-328 -31 -18 -88 -41 -125 -49 -91 -21 -308 -21 -532 0 -205 19 -302 14 -422
-21 -397 -115 -742 -321 -1030 -613 l-90 -91 28 -11 c15 -5 69 -10 119 -10
105 0 197 -9 197 -20 0 -11 -49 -30 -101 -40 -76 -15 -230 -28 -624 -55 -642
-44 -958 -90 -1240 -181 -95 -30 -249 -103 -287 -136 l-26 -23 37 -90 c136
-328 349 -537 661 -649 99 -36 161 -50 407 -91 114 -19 212 -40 217 -45 38
-38 -160 -40 -359 -4 -77 14 -157 28 -177 31 l-36 5 8 -38 c38 -171 78 -551
86 -824 20 -667 -116 -1217 -374 -1502 -40 -44 -35 -45 62 -17 258 75 489 181
692 318 189 127 368 296 452 428 15 23 31 41 37 39 15 -4 80 -137 104 -213 78
-245 91 -550 35 -878 -35 -206 -122 -499 -219 -737 -30 -73 -52 -134 -50 -136
6 -7 202 96 310 163 131 81 259 172 395 283 128 104 435 410 549 547 177 213
373 488 495 698 31 53 60 97 62 97 3 0 144 -100 312 -223 660 -480 1028 -735
1272 -881 81 -49 88 -51 155 -51 56 1 80 6 121 27 65 34 108 83 99 112 -23 71
-24 68 102 199 66 68 145 162 176 209 115 173 204 403 257 667 26 129 61 362
56 368 -1 1 -20 -28 -41 -65 -148 -252 -349 -516 -508 -665 -139 -130 -322
-267 -336 -251 -31 37 -160 250 -191 317 -61 131 -74 215 -45 298 9 24 45 96
80 160 102 185 154 339 170 509 l7 65 -31 -62 c-42 -87 -124 -195 -224 -295
-88 -88 -239 -208 -261 -208 -7 0 -20 8 -28 18 -22 25 -612 906 -698 1042
-103 162 -106 170 -87 206 28 54 170 225 472 569 77 87 216 247 308 355 93
107 172 195 177 195 17 0 234 -240 281 -312 42 -65 99 -174 156 -303 18 -39
16 186 -1 287 -19 105 -33 153 -90 297 -77 195 -79 254 -10 394 35 72 149 233
220 312 l37 41 119 -118 c66 -65 150 -154 188 -198 148 -173 292 -420 386
-660 l39 -99 3 89 c5 128 -16 419 -38 552 -36 206 -66 313 -165 573 -112 293
-109 349 24 508 52 63 60 79 67 128 9 76 -1 163 -35 297 -39 151 -149 453
-179 489 -29 34 -61 36 -117 5z m-1706 -1503 c-154 -438 -363 -672 -672 -756
-56 -15 -129 -21 -322 -28 -137 -6 -275 -15 -305 -21 -57 -12 -122 -40 -152
-67 -25 -22 -23 -8 18 121 104 321 253 487 503 556 38 11 138 27 223 36 258
27 355 43 446 74 98 33 186 81 247 135 22 19 41 35 42 36 1 0 -11 -39 -28 -86z"/>
</g>
</svg>
