<svg viewBox="0 0 446 165" xmlns="http://www.w3.org/2000/svg" xml:space="preserve" style="fill-rule:evenodd;clip-rule:evenodd;stroke-linejoin:round;stroke-miterlimit:2"><path d="M139.232 220.641c1.255 7.069 7.64 9.806 14.709 9.806 13.796.114 23.488-9.692 27.935-13.568 0 6.385-.913 13.796 6.385 13.796 7.297 0 14.252-7.867 14.252-7.867l-1.14-.799c-5.929 6.158-8.894 3.763-8.894-.456 0-4.104-.114-16.646-.114-34.091 0-17.559-12.428-23.374-28.048-21.094-15.621 2.166-21.55 10.718-18.471 14.937 2.964 4.104 8.437-2.395 16.532-3.079 6.385-.57 8.21 1.71 8.438 4.561.798 7.411-15.165 13.796-20.41 17.331-6.613 4.561-12.77 10.832-11.174 20.523Zm22.462-22.005c9.008-6.842 11.174-11.972 10.604-16.305-.684-5.701-7.525-7.183-14.937-6.385-1.482.114-3.078-.228-2.28-1.483 2.052-3.42 7.069-6.271 12.998-6.385 6.955-.114 13.797 4.561 13.797 19.27v27.706c-2.851 2.737-8.666 6.385-12.885 8.21-6.043 2.85-15.506 1.71-18.015-4.675-2.508-6.499 1.711-13.112 10.718-19.953ZM203.311 168.306c2.851.342 7.412.57 7.412 3.421v53.475c0 2.851-4.561 3.307-7.412 3.535v1.14h25.199v-1.14c-2.395-.228-7.412-.684-7.412-3.535v-19.611c.456-8.894 11.174-33.294 22.804-33.294 7.525 0 8.666 9.92 8.666 24.514v28.391c0 2.851-4.561 3.307-7.412 3.535v1.14h25.199v-1.14c-2.395-.228-7.412-.684-7.412-3.535v-28.277c0-16.647.456-30.557-15.62-30.557-11.63 0-23.83 20.067-26.225 32.382v-31.584h-17.787v1.14ZM287.914 156.562c3.762 0 6.841-2.964 6.841-6.841 0-3.762-3.079-6.841-6.841-6.841-3.763 0-6.842 3.079-6.842 6.841 0 3.877 3.079 6.841 6.842 6.841Zm-12.429 10.604v1.14c2.851.342 7.412.685 7.412 3.535v53.361c0 2.965-4.561 3.193-7.412 3.535v1.14h25.199v-1.14c-2.395-.342-7.411-.57-7.411-3.535v-58.036h-17.788ZM361.342 198.293v-1.368c0-16.647.57-30.557-12.77-30.557-11.744 0-20.068 19.611-22.462 31.925v-31.127h-17.787v1.14c2.851.342 7.411.57 7.411 3.421v53.475c0 2.851-4.56 3.307-7.411 3.535v1.14h25.198v-1.14c-2.394-.228-7.411-.684-7.411-3.535v-20.866c1.026-7.411 8.894-32.153 19.041-32.153 6.499 0 5.701 10.034 5.701 24.628v28.391c0 2.851-4.561 3.307-7.297 3.535v1.14h25.084v-1.14c-2.394-.228-7.297-.684-7.297-3.535v-20.866c1.026-7.411 8.894-32.153 19.041-32.153 6.499 0 5.701 10.034 5.701 24.628v28.391c0 2.851-4.561 3.307-7.411 3.535v1.14h25.198v-1.14c-2.394-.228-7.411-.684-7.411-3.535v-28.277c0-16.647.57-30.557-12.656-30.557-11.744 0-20.068 19.611-22.462 31.925ZM410.598 220.641c1.255 7.069 7.64 9.806 14.709 9.806 13.796.114 23.488-9.692 27.935-13.568 0 6.385-.913 13.796 6.385 13.796 7.297 0 14.252-7.867 14.252-7.867l-1.14-.799c-5.929 6.158-8.894 3.763-8.894-.456 0-4.104-.114-16.646-.114-34.091 0-17.559-12.428-23.374-28.048-21.094-15.621 2.166-21.55 10.718-18.472 14.937 2.965 4.104 8.438-2.395 16.533-3.079 6.385-.57 8.21 1.71 8.438 4.561.798 7.411-15.165 13.796-20.41 17.331-6.613 4.561-12.77 10.832-11.174 20.523Zm22.462-22.005c9.008-6.842 11.174-11.972 10.604-16.305-.684-5.701-7.525-7.183-14.937-6.385-1.482.114-3.078-.228-2.28-1.483 2.052-3.42 7.069-6.271 12.998-6.385 6.955-.114 13.797 4.561 13.797 19.27v27.706c-2.851 2.737-8.666 6.385-12.885 8.21-6.043 2.85-15.506 1.71-18.015-4.675-2.508-6.499 1.711-13.112 10.718-19.953ZM500.788 229.877v-1.14c-3.079-.342-7.412-.799-7.412-3.649V141.74h-17.787v1.14c2.851.342 7.412.798 7.412 3.535v78.673c0 2.85-4.561 3.307-7.412 3.649v1.14h25.199Z" style="fill:#f6f6eb;fill-rule:nonzero" transform="translate(-169.772 -172.177) scale(1.22786)"/></svg>