<svg viewBox="0 0 220 220" xmlns="http://www.w3.org/2000/svg" xml:space="preserve" style="fill-rule:evenodd;clip-rule:evenodd;stroke-linejoin:round;stroke-miterlimit:2"><path d="M9.897 211.997 10 212h200l.103-.003.101-.007.101-.013.098-.018.097-.022.095-.027.093-.031.09-.036.089-.04.086-.044.084-.049.081-.052.079-.055.075-.06.073-.063.069-.066.066-.069.063-.073.06-.075.055-.079.052-.081.049-.084.044-.086.04-.089.036-.09.031-.093.027-.095.022-.097.018-.098.013-.101.007-.101L212 210V10a2 2 0 0 0-2-2H10a2 2 0 0 0-2 2v200c0 .035.001.069.003.103l.007.101.013.101.018.098.022.097.027.095.031.093.036.09.04.089.044.086.049.084.052.081.055.079.06.075.063.073.066.069.069.066.073.063.075.06.079.055.081.052.084.049.086.044.089.04.09.036.093.031.095.027.097.022.098.018.101.013.101.007ZM160.002 12C186.511 12 208 33.489 208 59.998V208h-96V59.998C112 33.489 133.489 12 159.998 12h.004Zm-99.998 0C86.511 12 108 33.489 108 59.998V208H12V59.997C12 33.489 33.489 12 59.996 12h.008Zm79.96 0H80.036C94.492 18.039 105.639 30.421 110 45.667 114.362 30.421 125.508 18.04 139.964 12Zm40.072 0A52.169 52.169 0 0 1 208 39.964V12h-27.964ZM12 12v27.964A52.169 52.169 0 0 1 39.964 12H12Z"/></svg>