<svg viewBox="0 0 220 220" xmlns="http://www.w3.org/2000/svg" xml:space="preserve" style="fill-rule:evenodd;clip-rule:evenodd;stroke-linejoin:round;stroke-miterlimit:2"><path d="m8.003 210.103.007.101.013.101.018.098.022.097.027.095.031.093.036.09.04.089.044.086.049.084.052.081.055.079.06.075.063.073.066.069.069.066.073.063.075.06.079.055.081.052.084.049.086.044.089.04.09.036.093.031.095.027.097.022.098.018.101.013.101.007L10 212h200a2 2 0 0 0 2-2V110A102 102 0 0 0 110 8C53.667 8 8 53.667 8 110v100c0 .035.001.069.003.103ZM112 208h96v-98a97.997 97.997 0 0 0-28.704-69.296A97.997 97.997 0 0 0 110 12c-54.124 0-98 43.876-98 98v29.964C19.842 121.193 38.379 108 59.998 108h.004C88.72 108 112 131.28 112 159.998V208Zm-4 0H12v-48.002C12 133.489 33.489 112 59.998 112h.004C86.511 112 108 133.489 108 159.998V208Z"/></svg>