<svg viewBox="0 0 220 220" xmlns="http://www.w3.org/2000/svg" xml:space="preserve" style="fill-rule:evenodd;clip-rule:evenodd;stroke-linejoin:round;stroke-miterlimit:2"><path d="M110 8C53.705 8 8 53.705 8 110s45.705 102 102 102 102-45.705 102-102S166.295 8 110 8Zm0 4c54.088 0 98 43.912 98 98s-43.912 98-98 98-98-43.912-98-98 43.912-98 98-98Zm-62.589 88a102.246 102.246 0 0 1-8.237-7.164l-1.285-1.225L36.353 90l1.536-1.611 1.392-1.329C57.606 69.372 82.543 58.5 110 58.5c27.512 0 52.494 10.916 70.826 28.664l1.285 1.225L183.647 90l-1.536 1.611-1.285 1.225a102.246 102.246 0 0 1-8.237 7.164 102.246 102.246 0 0 1 8.237 7.164l1.285 1.225 1.536 1.611-1.536 1.611-1.285 1.225a102.246 102.246 0 0 1-8.237 7.164 102.246 102.246 0 0 1 8.237 7.164l1.285 1.225 1.536 1.611-1.536 1.611-1.285 1.225C162.494 150.584 137.512 161.5 110 161.5c-27.512 0-52.494-10.916-70.826-28.664l-1.285-1.225L36.353 130l1.536-1.611 1.392-1.329a102.474 102.474 0 0 1 8.13-7.06 102.246 102.246 0 0 1-8.237-7.164l-1.285-1.225L36.353 110l1.536-1.611 1.392-1.329a102.474 102.474 0 0 1 8.13-7.06Zm121.854 22.486a98.448 98.448 0 0 1 8.741 7.514c-17.61 17.03-41.595 27.5-68.006 27.5S59.604 147.03 41.994 130a98.448 98.448 0 0 1 8.741-7.514C67.432 134.456 87.9 141.5 110 141.5s42.568-7.044 59.265-19.014Zm-16.719-10.274A97.705 97.705 0 0 1 165.853 120c-15.844 11.035-35.099 17.5-55.853 17.5-20.754 0-40.009-6.465-55.853-17.5a97.602 97.602 0 0 1 13.307-7.788C80.403 118.175 94.816 121.5 110 121.5c15.184 0 29.597-3.325 42.546-9.288Zm-101.811-9.726A101.747 101.747 0 0 0 62.947 110a101.954 101.954 0 0 0-12.212 7.514A98.448 98.448 0 0 1 41.994 110a98.448 98.448 0 0 1 8.741-7.514Zm118.53 0a98.448 98.448 0 0 1 8.741 7.514 98.448 98.448 0 0 1-8.741 7.514A101.747 101.747 0 0 0 157.053 110a101.648 101.648 0 0 0 12.212-7.514ZM147.63 110c-11.589 4.833-24.3 7.5-37.63 7.5-13.33 0-26.041-2.667-37.63-7.5 11.589-4.833 24.3-7.5 37.63-7.5 13.33 0 26.041 2.667 37.63 7.5Zm18.223-10a97.602 97.602 0 0 1-13.307 7.788C139.597 101.825 125.184 98.5 110 98.5c-15.183 0-29.596 3.325-42.546 9.288A97.705 97.705 0 0 1 54.147 100C69.991 88.965 89.246 82.5 110 82.5c20.754 0 40.009 6.465 55.853 17.5Zm3.412-2.486C152.568 85.544 132.1 78.5 110 78.5c-22.097 0-42.562 7.042-59.265 19.014A98.448 98.448 0 0 1 41.994 90C59.604 72.97 83.589 62.5 110 62.5s50.396 10.47 68.006 27.5a98.448 98.448 0 0 1-8.741 7.514Z"/></svg>