<svg viewBox="0 0 220 220" xmlns="http://www.w3.org/2000/svg" xml:space="preserve" style="fill-rule:evenodd;clip-rule:evenodd;stroke-linejoin:round;stroke-miterlimit:2"><path d="M112 122.341V210a2 2 0 0 1-4 0v-87.659a12.671 12.671 0 0 0 4 0Zm-12.138-5.031a12.564 12.564 0 0 0 2.828 2.828l-61.986 61.987c-.781.78-2.048.78-2.829 0a2.003 2.003 0 0 1 0-2.829l61.987-61.986Zm20.276 0 61.987 61.986c.78.781.78 2.048 0 2.829-.781.78-2.048.78-2.829 0l-61.986-61.987a12.564 12.564 0 0 0 2.828-2.828ZM97.659 108a12.671 12.671 0 0 0 0 4H10a2 2 0 0 1 0-4h87.659Zm24.682 0H210a2 2 0 0 1 0 4h-87.659a12.671 12.671 0 0 0 0-4Zm-22.479-5.31L37.875 40.704a2.003 2.003 0 0 1 0-2.829 2.003 2.003 0 0 1 2.829 0l61.986 61.987a12.564 12.564 0 0 0-2.828 2.828Zm17.448-2.828 61.986-61.987a2.003 2.003 0 0 1 2.829 0c.78.781.78 2.048 0 2.829l-61.987 61.986a12.564 12.564 0 0 0-2.828-2.828ZM108 97.659V10a2 2 0 0 1 4 0v87.659a12.671 12.671 0 0 0-4 0Z"/></svg>