<?xml version="1.0" encoding="UTF-8" standalone="no"?>
<!DOCTYPE svg PUBLIC "-//W3C//DTD SVG 1.1//EN" "http://www.w3.org/Graphics/SVG/1.1/DTD/svg11.dtd">
<svg width="100%" height="100%" viewBox="0 0 500 500" version="1.1" xmlns="http://www.w3.org/2000/svg" xmlns:xlink="http://www.w3.org/1999/xlink" xml:space="preserve" xmlns:serif="http://www.serif.com/" style="fill-rule:evenodd;clip-rule:evenodd;stroke-linejoin:round;stroke-miterlimit:2;">
    <g id="premier-essais" serif:id="premier essais" transform="matrix(1.77672,0,0,1.77672,-633.683,-906.019)">
        <path d="M406.153,641.926C406.153,641.926 429.453,647.372 429.694,643.332C415.845,639.543 387.995,642.827 376.025,607.96C397.356,591.813 459.989,596.111 467.373,591.125C470.202,589.214 455.809,590.993 453.909,589.093C473.32,566.807 497.857,560.91 502.275,559.872C511.813,557.63 532.654,564.623 543.008,557.556C550.605,552.372 584.13,527.665 597.72,518.442C606.01,512.209 606.259,517.297 608.218,522.505C610.936,529.729 616.722,544.649 613.301,551.616C596.392,567.308 620.655,570.343 618.583,622.977C608.897,594.801 594.305,585.635 589.291,579.358C588.069,580.327 587.416,581.226 586.088,583.024C565.788,607.744 585.066,602.198 583.492,634.436C575.467,614.744 570.624,614.92 565.394,607.688C564.11,609.282 563.856,609.583 563.136,610.391C550.555,625.388 526.423,651.469 526.245,654.459C526.128,656.421 558.472,703.519 558.943,704.286C560.937,704.549 577.78,691.058 580.419,680.354C578.153,712.449 559.169,704.955 576.697,731.538C577.932,733.062 578.315,734.19 579.66,735.961C593.395,727.463 604.297,714.607 615.11,695.805C609.733,748.93 586.456,746.388 591.335,754.288C592.12,755.558 588.088,759.987 581.385,760.199C576.134,760.364 512.374,713.101 512.374,713.101C512.374,713.101 485.823,764.505 439.19,785.728C464.168,729.8 444.762,705.898 444.762,705.898C444.762,705.898 431.918,729.422 393.331,738.977C420.969,710.378 406.153,641.926 406.153,641.926ZM473.118,612.695C478.369,590.25 488.418,585.466 499.688,583.761C510.958,582.056 523.448,583.429 533.579,573.298C516.973,625.859 485.623,600.19 473.118,612.695Z" style="fill:rgb(255,223,136);"/>
    </g>
</svg>
