<svg viewBox="0 0 620 620" xmlns="http://www.w3.org/2000/svg" fill-rule="evenodd" clip-rule="evenodd" stroke-linejoin="round" stroke-miterlimit="2">
  <circle cx="467.6" cy="613.1" r="62.1" fill="#ffdc88" transform="translate(-2005 -2725) scale(4.94942)"/>
  <path d="M187 316s-2 22-25 26c15-19 15-27 15-27s0 12-16 16c-2-2 9-7 9-16 0-15 9-16 13-17 11 11 49 15 49 10-17-4-50 2-67-39 25-21 100-20 109-27 3-2-14 1-16-1 21-29 50-37 56-39 11-3 37 4 49-6l63-51c9-8 10-2 13 4 3 9 11 26 8 35-19 20 10 22 11 86-13-34-32-44-38-51l-4 5c-22 31 0 23 1 62-11-23-17-23-24-31l-2 4c-14 18 0 14 1 38-3-9-12-17-15-20l-2 3c-9 12 0 9 0 23-2-8-7-10-9-11v1c-6 7 0 6 0 14-2-5-4-6-6-7-10 11-11 11-11 14s0 3 11 14c2 0 5-5 6-7 0 8-6 7 0 14v1c3 0 9-8 9-11 0 14-9 12 0 23l1 2c7-3 14-13 16-19-1 24-15 20-1 39l1 2c3 0 22-17 25-30-1 38-24 31-1 61l4 6c16-12 28-28 39-51-2 64-30 63-24 72 1 1-4 7-12 8-6 0-14-3-22-9h-11l5-4h-12c-1-1 3-3 3-4 0-2-13 0-14-1s4-2 4-3c0-2-12 0-12-1-1-1 5-4 5-5 0-2-12-1-13-2l5-3-12-3 4-4-16-13s-1 24 25 45c-33-8-38-23-38-23s-22 44-70 71c26-70 1-97 1-97s-15 29-59 44c54-60 41-77 41-77s-14 27-63 36c31-37 31-65 31-65s-5 33-39 39c28-35 21-43 21-43zm106-64c3-19 12-24 21-26s20-1 28-10c-12 45-39 25-49 36z" fill="#17100f"/>
</svg>
