<svg viewBox="0 0 500 500" xmlns="http://www.w3.org/2000/svg" xmlns:serif="http://www.serif.com/" fill-rule="evenodd" clip-rule="evenodd" stroke-linejoin="round" stroke-miterlimit="2"><path d="M87.93716 234.50376s41.39757 9.67602 41.82576 2.49807c-24.6058-6.732-74.08744-.89724-95.35478-62.84614 37.89921-28.6887 149.18052-21.05235 162.29982-29.91108 5.02634-3.39531-20.546-.23453-23.92176-3.6103 34.48791-39.59598 78.08329-50.0733 85.93284-51.91753 16.94635-3.9834 53.97497 8.4412 72.37113-4.11488 13.49775-9.21052 73.06228-53.10794 97.2079-69.49463 14.72902-11.0743 15.17142-2.03434 18.65201 7.21881 4.82913 12.83503 15.10923 39.3437 9.03107 51.7221-30.04256 27.88029 13.066 33.27263 9.38464 126.78852-17.20931-50.06087-43.13521-66.34628-52.04368-77.49875-2.17116 1.72164-3.33135 3.3189-5.69084 6.51345-36.06741 43.92052-1.8158 34.06683-4.61236 91.34473-14.25818-34.98717-22.86284-34.67447-32.15508-47.5237-2.28131 2.83209-2.7326 3.36688-4.01184 4.80247-22.35291 26.64547-65.22872 72.9841-65.54497 78.2965-.20788 3.48592 57.25835 87.16588 58.09519 88.52862 3.54278.46728 33.46807-23.50245 38.15684-42.52046-4.02605 57.02383-37.7553 43.70909-6.61296 90.93964 2.19425 2.70772 2.87474 4.71186 5.26443 7.85843 24.40324-15.09857 43.77305-37.94008 62.98472-71.34597-9.55342 94.38825-50.91014 89.87183-42.24152 103.90792 1.39473 2.25643-5.769 10.12552-17.67836 10.50219-9.32956.29316-122.61323-83.67996-122.61323-83.67996s-47.17369 91.33051-130.02747 129.03784c44.3789-99.3684 9.89988-141.83556 9.89988-141.83556s-22.8202 41.79557-91.37849 58.77213c49.105-50.81242 22.7811-172.43246 22.7811-172.43246zm118.97805-51.9353c9.32956-39.87848 27.18382-48.3783 47.20745-51.40762 20.02364-3.0293 42.21487-.58987 60.21482-18.58982-29.50421 93.38618-85.20438 47.77956-107.42227 69.99744z" fill="#ffdf88" serif:id="premier essais"/></svg>