<?xml version="1.0" encoding="UTF-8" standalone="no"?>
<!DOCTYPE svg PUBLIC "-//W3C//DTD SVG 1.1//EN" "http://www.w3.org/Graphics/SVG/1.1/DTD/svg11.dtd">
<svg width="100%" height="100%" viewBox="0 0 500 220" version="1.1" xmlns="http://www.w3.org/2000/svg" xmlns:xlink="http://www.w3.org/1999/xlink" xml:space="preserve" xmlns:serif="http://www.serif.com/" style="fill-rule:evenodd;clip-rule:evenodd;stroke-linejoin:round;stroke-miterlimit:2;">
    <path d="M438.668,105.057L438.148,104.926L421.64,116.925C420.47,116.534 419.56,116.273 416.051,116.273C400.713,116.273 388.235,127.098 388.235,140.922C388.235,149.399 393.044,156.311 400.973,159.572C392.264,164.136 388.235,169.614 388.235,174.831C388.235,179.656 391.614,183.569 396.034,185.395C389.015,188.394 384.985,191.655 384.985,197.263C384.985,205.479 394.734,212 409.682,212C429.569,212 441.527,198.436 441.527,183.178C441.527,178.352 440.357,175.483 438.538,172.483L405.912,172.483C401.623,172.483 398.763,170.918 398.763,166.875C398.763,164.528 399.673,162.571 403.573,160.354C405.002,161.006 406.822,161.398 410.722,161.398C426.189,161.398 438.408,149.921 438.408,136.227C438.408,131.401 436.848,127.098 433.858,123.576C436.848,117.316 438.018,112.752 438.668,105.057ZM399.153,187.22L429.959,187.22C431.259,188.525 431.779,192.307 431.779,194.654C431.779,204.305 421.77,209.652 411.501,209.652C400.193,209.652 394.864,204.175 394.864,196.089C394.864,191.916 396.294,189.438 399.153,187.22ZM456.764,147.173C458.848,162.136 467.272,168.455 474.413,168.455C480.652,168.455 488.451,164.02 490.4,158.543L492.35,159.325C487.671,171.194 478.442,183.192 465.574,183.192C451.146,183.192 441.527,167.933 441.527,152.283C441.527,135.459 451.926,116.157 470.513,116.157C483.381,116.157 492.87,126.59 493,144.197L493,147.173L456.764,147.173ZM325.944,116.346L302.937,116.346L314.765,124.562L300.337,160.558L286.819,124.693L296.308,116.346L261.993,116.346L269.271,124.562L292.538,183.12L295.138,183.12L318.665,124.562L325.944,116.346ZM94.149,155.623L95.319,178.588C100.261,180.676 109.104,181.589 115.607,181.589C125.88,181.589 141.096,175.717 141.096,160.581C141.096,136.703 105.463,142.575 105.463,129.135C105.463,124.046 108.584,120.653 114.046,120.523C122.369,120.392 130.172,126.656 134.854,135.137L135.634,135.268L135.634,113.607L130.822,116.347L116.517,116.347C103.252,116.347 94.799,124.829 94.799,134.485C94.799,160.32 129.262,152.752 129.262,168.149C129.262,174.021 124.84,176.631 119.508,176.631C108.844,176.631 98.571,166.845 95.189,155.623L94.149,155.623ZM359.609,169.296L359.609,180.251L384.955,180.251L375.337,171.774L375.207,171.774L375.207,126.258L378.066,116.346L329.583,116.346L329.583,137.213L330.493,137.213C338.292,124.171 344.271,118.824 351.29,118.824C357.659,118.824 359.609,123.128 359.609,138.517C334.782,148.429 326.463,155.341 326.463,166.557C326.463,175.426 331.533,181.555 339.592,181.555C345.181,181.555 349.99,178.686 359.609,169.296ZM224.652,156.254L224.652,116.216L199.305,116.216L209.054,126.258L209.054,160.688C209.054,172.948 215.293,181.555 225.951,181.555C233.23,181.555 239.21,177.121 243.239,170.6L243.239,181.034L267.676,180.251L258.837,170.861L258.837,116.216L233.62,116.216L243.239,126.258L243.239,167.079C240.379,170.991 236.87,173.209 233.49,173.209C226.081,173.209 224.652,166.818 224.652,156.254ZM177.273,169.296L177.273,180.251L202.62,180.251L193.001,171.774L192.871,171.774L192.871,126.258L195.731,116.346L147.247,116.346L147.247,137.213L148.157,137.213C155.956,124.171 161.935,118.824 168.954,118.824C175.324,118.824 177.273,123.128 177.273,138.517C152.447,148.429 144.128,155.341 144.128,166.557C144.128,175.426 149.197,181.555 157.256,181.555C162.845,181.555 167.655,178.686 177.273,169.296ZM359.609,141.256L359.609,166.166C355.449,170.47 352.98,171.252 350.51,171.252C345.831,171.252 343.621,168.383 343.621,162.253C343.621,153.907 347.781,147.125 359.609,141.256ZM177.273,141.256L177.273,166.166C173.114,170.47 170.644,171.252 168.175,171.252C163.495,171.252 161.285,168.383 161.285,162.253C161.285,153.907 165.445,147.125 177.273,141.256ZM410.462,119.012C416.571,119.012 421.64,129.445 421.64,144.052C421.64,153.181 420.21,158.92 415.531,158.92C409.422,158.92 404.872,148.225 404.872,132.966C404.872,124.489 405.652,119.012 410.462,119.012ZM481.457,144.197L481.457,139.517C481.457,125.553 475.864,120.072 470.142,120.072C460.433,120.072 456.37,131.529 456.228,139.355C456.22,139.489 456.215,139.626 456.215,139.763L456.215,144.197L481.457,144.197ZM346.486,89.642L346.486,100.597L371.833,100.597L362.214,92.12L362.084,92.12L362.084,46.604L364.944,36.692L316.46,36.692L316.46,57.559L317.37,57.559C325.169,44.517 331.148,39.17 338.167,39.17C344.536,39.17 346.486,43.474 346.486,58.863C321.66,68.775 313.341,75.687 313.341,86.903C313.341,95.772 318.41,101.901 326.469,101.901C332.058,101.901 336.868,99.032 346.486,89.642ZM29.707,72.296L57.913,72.296L64.022,89.642L52.844,100.597L90.538,100.597L81.7,88.99L53.754,11.26L35.426,11.26L41.795,26.65L19.568,89.512L8,100.597L34.646,100.597L23.468,90.164L29.707,72.296ZM169.64,44.126L178.478,54.168L178.478,89.381L168.86,100.597L203.695,100.597L194.076,89.381L194.076,35.388L169.64,44.126ZM232.522,44.908L232.522,35.388L208.085,44.126L216.924,54.168L216.924,90.685L207.305,100.597L242.141,100.597L232.522,90.685L232.522,47.908C236.551,43.604 239.281,42.691 242.79,42.691C249.03,42.691 252.279,48.038 252.279,59.124L252.279,90.816L242.79,100.597L277.626,100.597L268.007,90.685L267.877,90.685L267.877,53.907C267.877,52.081 267.747,50.256 267.487,48.56C271.776,43.735 274.636,42.691 278.276,42.691C284.645,42.691 287.764,48.169 287.764,59.124L287.764,90.816L278.276,100.597L313.111,100.597L303.492,90.685L303.362,90.685L303.362,55.994C303.362,43.865 295.953,35.127 285.814,35.127C278.795,35.127 271.516,39.431 266.317,46.604C263.848,39.692 257.608,35.127 250.329,35.127C244.09,35.127 237.981,38.518 232.522,44.908ZM384.832,43.213L384.832,89.381L375.213,100.597L410.048,100.597L400.43,89.381L400.43,8L375.993,15.434L384.832,25.476L384.832,30.432L375.993,33.171L384.832,43.213ZM130.414,100.597L165.249,100.597L155.37,90.685L155.37,55.994C155.37,43.735 149.131,35.127 138.473,35.127C133.274,35.127 124.825,39.17 119.625,47.256L119.625,35.388L95.189,44.126L104.028,54.168L104.028,90.685L94.149,100.597L128.984,100.597L119.625,90.685L119.625,49.864C123.785,44.256 128.724,43.343 130.934,43.343C138.343,43.343 139.773,49.734 139.773,60.428L139.773,90.685L130.414,100.597ZM346.486,61.602L346.486,86.512C342.327,90.816 339.857,91.598 337.387,91.598C332.708,91.598 330.498,88.729 330.498,82.599C330.498,74.253 334.658,67.471 346.486,61.602ZM43.875,32.127L56.613,68.645L31.007,68.645L43.875,32.127ZM173.662,16.823L184.133,13.579L194.603,16.823L184.133,28.72L173.662,16.823Z" style="fill:url(#_Radial1);fill-rule:nonzero;"/>
    <defs>
        <radialGradient id="_Radial1" cx="0" cy="0" r="1" gradientUnits="userSpaceOnUse" gradientTransform="matrix(485,0,0,204,8,110)"><stop offset="0" style="stop-color:rgb(23,16,15);stop-opacity:1"/><stop offset="0.55" style="stop-color:rgb(187,162,100);stop-opacity:1"/><stop offset="1" style="stop-color:rgb(255,223,136);stop-opacity:1"/></radialGradient>
    </defs>
</svg>
