<svg viewBox="0 0 8000 4500" xmlns="http://www.w3.org/2000/svg" fill-rule="evenodd" clip-rule="evenodd" stroke-linejoin="round" stroke-miterlimit="2"><path d="M0 0v4500h8000V0H0z" fill="#204880"/><path d="M3306.2 2555.38c22.366-11.414 104.281-89.433 115.264-149.081-2.084 192.368-118.066 154.406-3.974 306.824 7.918 8.657 10.605 15.253 19.264 25.346 78.951-55.618 139.438-136.239 197.277-252.313-13.162 318.998-152.998 312.124-121.06 357.54 5.134 7.3-17.35 35.173-57.283 38.823-31.282 2.86-428.692-256.513-428.692-256.513s-140.151 316.277-410.925 459.572c129.152-342.717 4.807-478.466 4.807-478.466s-68.278 144.983-295.183 215.772c154.768-180.552 41.935-583.834 41.935-583.834s141.011 24.197 141.011 0c-84.014-17.681-249.068 11.847-332.943-191.993 121.564-103.98 496.934-100.651 539.228-133.047 16.204-12.412-69.069 3.338-81.09-7.328 107.917-139.937 252.268-183.878 278.267-191.65 56.131-16.78 183.014 17.528 242.298-28.341 43.493-33.651 234.787-193.065 312.614-252.956 47.258-40.163 50.561-9.88 64.111 20.503 18.796 42.149 58.645 129.145 40.709 171.943-95.327 99.687 50.57 109.157 56.967 424.047-67.86-164.72-158.219-214.223-190.381-249.902-6.948 6.219-10.528 11.812-17.812 23.017-112.356 154.783.734 114.812 2.827 307.789-51.284-107.093-79.831-111.751-110.91-145.543-2.29.479-5.66.34-9.897-.256 1.228-1.631 2.546-3.435 4.399-6.016-.384-.457-.765-.918-1.147-1.385-2.139 3.007-3.761 5.279-5.095 7.123.631.102 1.244.194 1.843.278-1.278 1.699-2.458 3.208-4.041 5.212-70.263 94.699.37 70.105 5.108 194.137-15.32-47.836-58.701-86.451-75.384-99.739-.819 1.903-5.714 8.667-8.417 13.595-42.168 57.872.07 42.596 2.111 115.706-13.085-39.159-35.047-51.848-44.558-58.399-3.013 2.948-1.553 3.75-3.713 6.23-25.839 35.34-.061 29.229.683 72.483-7.641-25.443-18.881-30.191-27.199-36.708-16.694 16.304-28.288 27.582-36.337 35.916-8.082 11.427-14.311 20.839-18.045 27.54-.241 2.234-.259 4.636-.259 7.481 0 11.84.301 11.811 52.292 67.475 12.933-.92 27.189-26.216 30.363-33.831-.261 42.471-30.066 34.307-1.772 72.102 1.073 1.367 1.925 2.192 3.046 3.676 12.333-2.535 44.328-41.568 44.719-54.747l.004-.308c0 .101-.001.205-.004.308-.538 71.199-44.888 57.177-1.617 112.438 3.247 5.254 5.379 8.907 7.583 12.004 30.65-15.727 66.169-66.689 76.166-93.958-2.998 119.47-74.14 96.196-4.181 190.898 2.442 3.697 4.387 6.723 7.023 10.536zm-549.296-514.671c23.339-135.839 81.616-167.973 148.274-182.167 66.658-14.194 141.696-10.449 198.554-74.53-80.383 319.636-276.648 177.602-346.828 256.697zM1190.67 2293.62c3.195-1.631 14.897-12.776 16.466-21.297-.297 27.481-16.866 22.058-.568 43.832 1.132 1.236 1.516 2.179 2.752 3.621 11.279-7.946 19.92-19.463 28.183-36.045-1.88 45.571-21.857 44.589-17.294 51.077.733 1.043-2.479 5.025-8.184 5.546-4.469.409-61.241-36.645-61.241-36.645s-20.022 45.183-58.704 65.654c18.45-48.96.687-68.353.687-68.353s-9.754 20.712-42.169 30.825c22.11-25.793 5.99-83.405 5.99-83.405s20.145 3.457 20.145 0c-12.002-2.526-35.581 1.692-47.563-27.428 17.366-14.854 70.99-14.378 77.032-19.006 2.315-1.773-9.867.477-11.584-1.047 15.417-19.991 36.038-26.268 39.752-27.379 8.019-2.397 26.145 2.504 34.614-4.048 6.214-4.808 33.541-27.581 44.66-36.137 6.751-5.738 7.223-1.411 9.158 2.929 2.685 6.021 8.378 18.449 5.816 24.563-13.618 14.241 7.224 15.594 8.138 60.578-9.694-23.531-22.603-30.603-27.197-35.7-.993.889-1.504 1.688-2.545 3.288-16.051 22.112.105 16.402.404 43.97-7.326-15.299-11.404-15.964-15.844-20.792-.328.069-.809.049-1.414-.036.175-.233.364-.491.628-.86-.055-.065-.109-.131-.164-.198-.305.43-.537.755-.727 1.018.09.015.177.028.263.04-.183.242-.351.458-.577.744-10.038 13.529.052 10.015.729 27.734-2.188-6.834-8.386-12.35-10.769-14.248-.117.272-.816 1.238-1.202 1.942-6.024 8.267.01 6.085.301 16.529-1.869-5.594-5.006-7.407-6.365-8.342-.431.421-.222.535-.531.89-3.691 5.048-.008 4.175.098 10.354-1.092-3.634-2.697-4.313-3.886-5.244-2.384 2.329-4.041 3.941-5.191 5.131-1.154 1.633-2.044 2.977-2.577 3.934-.035.32-.037.663-.037 1.069 0 1.692.043 1.687 7.47 9.639 1.847-.131 3.884-3.745 4.337-4.833-.037 6.068-4.295 4.901-.253 10.301.154.195.275.313.435.525 1.762-.362 6.333-5.938 6.389-7.821v-.044.044c-.077 10.171-6.413 8.168-.231 16.062.464.751.768 1.273 1.083 1.715 4.379-2.246 9.453-9.527 10.881-13.422-.428 17.067-10.592 13.742-.597 27.271.348.528.626.96 1.003 1.505zm-78.471-73.524c3.334-19.406 11.66-23.997 21.182-26.024 9.523-2.028 20.242-1.493 28.365-10.647-11.483 45.662-39.521 25.371-49.547 36.671z" fill="#ffdf88"/><path d="M4544.29 2238.99s141.716 24.319 141.716 0c-84.434-17.769-250.312 11.906-334.606-192.952 122.171-104.499 499.415-101.153 541.92-133.711 16.285-12.474-69.413 3.355-81.495-7.365 108.457-140.635 253.528-184.795 279.657-192.606 56.411-16.864 183.928 17.615 243.508-28.483 43.71-33.819 235.96-194.029 314.175-254.219 47.493-40.363 50.814-9.929 64.431 20.606 18.889 42.359 58.938 129.789 40.913 172.801-95.803 100.185 50.822 109.702 57.25 426.165-68.199-165.543-159.008-215.293-191.331-251.15-6.983 6.249-10.58 11.871-17.901 23.132-112.917 155.556.738 115.385 2.841 309.325-55.188-115.245-84.176-112.455-118.141-153.965-7.132 10.025-8.543 11.918-12.577 17.024-70.09 94.466-205.503 259.558-205.503 277.559 0 11.81 210.885 282.737 213.986 287.168 12.056.867 108.257-86.093 120.253-151.245-2.094 193.329-118.655 155.177-3.994 308.356 7.958 8.701 10.659 15.329 19.361 25.473 79.345-55.896 140.134-136.92 198.262-253.572-13.228 320.59-153.762 313.682-121.665 359.324 5.16 7.337-17.437 35.349-57.569 39.017-31.438 2.874-430.832-257.794-430.832-257.794s-140.851 317.857-412.977 461.867c129.797-344.428 4.831-480.855 4.831-480.855s-68.619 145.707-296.657 216.849c155.541-181.453 42.144-586.749 42.144-586.749zm391.218-199.331c23.455-136.518 82.024-168.812 149.015-183.077 66.99-14.265 142.403-10.501 199.545-74.902-80.784 321.232-278.03 178.489-348.56 257.979zM6782.27 2248.43s20.245 3.474 20.245 0c-12.062-2.538-35.759 1.701-47.801-27.564 17.453-14.929 71.345-14.451 77.418-19.102 2.326-1.782-9.917.479-11.642-1.052 15.493-20.091 36.218-26.399 39.95-27.515 8.059-2.409 26.276 2.516 34.787-4.069 6.245-4.832 33.709-27.719 44.882-36.317 6.785-5.766 7.26-1.419 9.205 2.943 2.698 6.052 8.42 18.542 5.845 24.686-13.687 14.312 7.26 15.672 8.178 60.881-9.742-23.649-22.715-30.756-27.333-35.879-.997.893-1.511 1.696-2.557 3.305-16.131 22.222.105 16.484.406 44.189-7.884-16.463-12.025-16.065-16.878-21.995-1.018 1.432-1.22 1.703-1.796 2.432-10.013 13.495-29.358 37.08-29.358 39.652 0 1.687 30.127 40.391 30.57 41.024 1.722.123 15.465-12.299 17.179-21.607-.3 27.619-16.951 22.168-.571 44.051 1.137 1.243 1.523 2.19 2.766 3.639 11.335-7.985 20.019-19.56 28.323-36.225-1.89 45.799-21.966 44.812-17.381 51.332.737 1.049-2.491 5.05-8.224 5.574-4.491.411-61.547-36.827-61.547-36.827s-20.122 45.408-58.997 65.981c18.542-49.204.69-68.694.69-68.694s-9.803 20.815-42.379 30.978c22.22-25.921 6.02-83.821 6.02-83.821zm55.888-28.476c3.351-19.502 11.718-24.116 21.288-26.154 9.57-2.037 20.344-1.5 28.507-10.7-11.541 45.89-39.719 25.499-49.795 36.854z" fill="#f4f4f5"/></svg>