<svg viewBox="0 0 1920 540" xmlns="http://www.w3.org/2000/svg" fill-rule="evenodd" clip-rule="evenodd" stroke-linejoin="round" stroke-miterlimit="2"><path fill="#204880" d="M.007 540.004V.005h1920v539.999z"/><path d="M814.362 346.593c0-.756-.324-1.332-.936-1.764-.612-.432-1.404-.828-2.304-1.188-.936-.36-1.944-.72-3.024-1.08-1.08-.36-2.088-.828-2.988-1.44a8.269 8.269 0 01-2.34-2.268c-.612-.9-.936-2.088-.936-3.564 0-1.26.216-2.34.684-3.312.432-.936 1.044-1.728 1.872-2.34.792-.612 1.764-1.044 2.916-1.368 1.116-.324 2.376-.468 3.744-.468 1.584 0 3.096.144 4.536.396 1.404.288 2.592.684 3.492 1.188l-1.692 4.464a7.51 7.51 0 00-1.08-.54c-.468-.18-.972-.324-1.548-.468a92.524 92.524 0 00-1.836-.324 17.758 17.758 0 00-1.98-.108c-1.188 0-2.124.216-2.772.612-.684.432-1.008 1.008-1.008 1.764s.324 1.332.936 1.764c.612.468 1.404.864 2.34 1.224.9.396 1.908.756 2.988 1.116 1.08.396 2.088.864 3.024 1.44.9.612 1.692 1.332 2.304 2.232.612.9.936 2.016.936 3.42s-.252 2.592-.72 3.6a6.484 6.484 0 01-2.016 2.484c-.9.684-1.944 1.152-3.168 1.476-1.224.324-2.556.468-4.032.468-.972 0-1.908-.072-2.772-.144-.9-.108-1.692-.252-2.448-.432a15.029 15.029 0 01-1.944-.504c-.576-.18-1.044-.324-1.368-.504l1.764-4.5c.252.144.612.288 1.116.468.468.18.972.324 1.548.468.576.18 1.188.288 1.872.396.648.108 1.296.144 1.98.144 1.584 0 2.772-.216 3.636-.684.828-.468 1.224-1.152 1.224-2.124zM828.546 334.605v10.476c0 1.548.216 2.7.648 3.42.432.72 1.26 1.08 2.484 1.08 1.044 0 1.944-.288 2.664-.828.72-.54 1.26-1.26 1.584-2.088v-12.06h5.04v13.14c0 1.008.072 2.016.18 3.024s.252 1.908.432 2.736h-3.708l-.972-2.952h-.396c-.612 1.008-1.512 1.836-2.664 2.484-1.152.684-2.484 1.008-3.96 1.008-1.044 0-1.944-.144-2.736-.396-.792-.252-1.44-.72-1.98-1.332-.576-.612-.972-1.404-1.224-2.412-.288-1.008-.432-2.268-.432-3.744v-11.556h5.04zM847.23 334.605h5.04v18.9h-5.04v-18.9zm-.756-4.068c0-.756.288-1.404.828-1.944.54-.504 1.332-.756 2.34-.756 1.044 0 1.836.252 2.448.792.612.54.9 1.152.9 1.908 0 .684-.288 1.296-.9 1.8-.612.504-1.404.756-2.448.756-1.008 0-1.8-.252-2.34-.756-.54-.504-.828-1.116-.828-1.8zM855.726 334.605h2.88v-2.592l5.04-1.332v3.924h5.076v4.212h-5.076v6.552c0 1.512.144 2.592.468 3.24.288.684.864 1.008 1.764 1.008.54 0 1.008-.036 1.404-.144.396-.072.792-.216 1.224-.396l1.044 3.78c-.756.324-1.656.612-2.628.864-1.008.252-1.98.36-2.916.36-1.872 0-3.24-.468-4.104-1.404-.864-.9-1.296-2.376-1.296-4.428v-9.432h-2.88v-4.212zM888.522 351.777c-.828.612-1.944 1.152-3.312 1.584-1.44.468-2.916.684-4.536.684-3.24 0-5.616-.9-7.128-2.664-1.512-1.764-2.268-4.212-2.268-7.308 0-3.276.864-5.796 2.556-7.488 1.692-1.692 4.104-2.52 7.2-2.52 1.008 0 2.016.108 2.988.36a7.415 7.415 0 012.628 1.26c.756.612 1.368 1.404 1.872 2.376.468 1.008.684 2.232.684 3.708 0 .504-.036 1.044-.072 1.656a18.57 18.57 0 01-.324 1.872h-12.6c.108 1.62.612 2.844 1.44 3.6.828.792 2.16 1.188 4.032 1.188 1.116 0 2.16-.144 3.06-.504.9-.288 1.584-.648 2.052-.972l1.728 3.168zm-7.56-13.752c-1.476 0-2.592.396-3.312 1.188-.72.828-1.152 1.836-1.26 3.096h8.136c.108-1.332-.144-2.376-.72-3.132-.576-.756-1.512-1.152-2.844-1.152zM920.886 346.881c0 1.008 0 2.052.036 3.132a32.93 32.93 0 00.324 3.528h-3.492l-.72-2.628h-.468c-.54.972-1.332 1.728-2.34 2.268-1.044.576-2.268.864-3.672.864-2.52 0-4.464-.792-5.868-2.376-1.404-1.548-2.088-3.996-2.088-7.272 0-1.584.216-3.024.612-4.284.36-1.26.972-2.34 1.764-3.24.756-.9 1.728-1.584 2.88-2.052 1.152-.468 2.484-.72 3.996-.72.828 0 1.584.072 2.196.18.612.144 1.188.324 1.8.504v-6.48h5.04v18.576zm-9.036 2.952c1.116 0 2.016-.252 2.628-.792.612-.504 1.08-1.224 1.368-2.196v-7.56a5.702 5.702 0 00-1.368-.756c-.504-.144-1.152-.216-1.944-.216-1.62 0-2.808.468-3.564 1.404-.792.936-1.188 2.556-1.188 4.824 0 1.584.324 2.88 1.008 3.816.648.972 1.656 1.476 3.06 1.476zM942.45 351.777c-.828.612-1.944 1.152-3.312 1.584-1.44.468-2.916.684-4.536.684-3.24 0-5.616-.9-7.128-2.664-1.512-1.764-2.268-4.212-2.268-7.308 0-3.276.864-5.796 2.556-7.488 1.692-1.692 4.104-2.52 7.2-2.52 1.008 0 2.016.108 2.988.36a7.415 7.415 0 012.628 1.26c.756.612 1.368 1.404 1.872 2.376.468 1.008.684 2.232.684 3.708 0 .504-.036 1.044-.072 1.656a18.57 18.57 0 01-.324 1.872h-12.6c.108 1.62.612 2.844 1.44 3.6.828.792 2.16 1.188 4.032 1.188 1.116 0 2.16-.144 3.06-.504.9-.288 1.584-.648 2.052-.972l1.728 3.168zm-7.56-13.752c-1.476 0-2.592.396-3.312 1.188-.72.828-1.152 1.836-1.26 3.096h8.136c.108-1.332-.144-2.376-.72-3.132-.576-.756-1.512-1.152-2.844-1.152zM957.354 328.305h16.236v4.68h-10.908v5.868h10.044v4.68h-10.044v9.972h-5.328v-25.2zM978.054 334.605h5.04v18.9h-5.04v-18.9zm-.756-4.068c0-.756.288-1.404.828-1.944.54-.504 1.332-.756 2.34-.756 1.044 0 1.836.252 2.448.792.612.54.9 1.152.9 1.908 0 .684-.288 1.296-.9 1.8-.612.504-1.404.756-2.448.756-1.008 0-1.8-.252-2.34-.756-.54-.504-.828-1.116-.828-1.8zM988.854 328.305h5.04v7.92h.432c.576-.648 1.332-1.152 2.232-1.548.9-.36 1.872-.54 2.952-.54 2.448 0 4.32.792 5.616 2.376 1.26 1.62 1.908 3.96 1.908 7.02 0 1.656-.216 3.132-.684 4.428a9.15 9.15 0 01-2.016 3.276c-.864.9-1.908 1.548-3.168 2.016-1.26.504-2.664.72-4.212.72-1.8 0-3.42-.108-4.824-.36-1.404-.288-2.52-.54-3.276-.864v-24.444zm5.04 20.916a3.829 3.829 0 001.548.432c.54.072 1.116.108 1.728.108 3.132 0 4.68-2.052 4.68-6.12 0-1.728-.324-3.06-.972-3.96-.648-.9-1.62-1.332-2.88-1.332-1.08 0-1.944.252-2.592.756-.684.504-1.188 1.26-1.512 2.232v7.884zM1010.062 344.073c0-3.132.828-5.58 2.484-7.344 1.656-1.764 4.032-2.664 7.092-2.664 1.62 0 3.024.252 4.212.756 1.188.504 2.196 1.188 2.988 2.088.792.9 1.404 1.98 1.8 3.168.396 1.224.576 2.556.576 3.996 0 1.548-.216 2.916-.648 4.14-.432 1.26-1.044 2.304-1.872 3.168-.828.864-1.8 1.512-2.988 1.98-1.188.468-2.556.684-4.068.684-1.62 0-3.06-.252-4.248-.756-1.188-.504-2.196-1.224-2.988-2.124-.792-.9-1.368-1.944-1.764-3.168-.396-1.188-.576-2.52-.576-3.924zm5.184 0c0 .792.072 1.548.252 2.232.18.684.432 1.296.792 1.8.324.54.792.936 1.332 1.26.54.324 1.224.468 2.016.468 2.916 0 4.392-1.908 4.392-5.76 0-.828-.072-1.62-.216-2.34a7.02 7.02 0 00-.756-1.836c-.36-.504-.828-.9-1.368-1.188-.576-.288-1.26-.432-2.052-.432-1.368 0-2.448.468-3.204 1.368-.792.9-1.188 2.376-1.188 4.428zM1046.056 353.505v-10.368c0-1.62-.252-2.808-.756-3.528-.504-.72-1.404-1.08-2.664-1.08-1.08 0-1.98.288-2.736.864-.756.612-1.296 1.368-1.584 2.268 0 1.98 0 3.924.036 5.904v5.94h-5.04v-18.9h3.96l.54 2.7h.54c.612-.9 1.44-1.656 2.484-2.304 1.044-.612 2.376-.936 4.032-.936 1.008 0 1.908.108 2.7.36a4.417 4.417 0 011.944 1.296c.504.648.9 1.44 1.188 2.484.252 1.044.396 2.34.396 3.888v11.412h-5.04zM1056.102 335.901c1.08-.468 2.412-.864 3.996-1.188 1.548-.324 3.168-.468 4.86-.468 1.332 0 2.448.144 3.348.468.9.324 1.584.756 2.124 1.332.54.612.9 1.332 1.152 2.124.216.828.324 1.764.324 2.772 0 1.224-.036 2.448-.144 3.636-.108 1.188-.144 2.484-.144 3.816 0 .9.072 1.8.18 2.664.108.864.324 1.692.576 2.484h-4.104l-.828-2.808h-.432c-.612.828-1.404 1.548-2.376 2.16-.972.612-2.196.9-3.708.9-.9 0-1.728-.144-2.484-.396a5.266 5.266 0 01-1.944-1.152 4.67 4.67 0 01-1.26-1.728c-.324-.684-.468-1.404-.468-2.196 0-2.124.72-3.744 2.16-4.86 1.404-1.08 3.564-1.62 6.48-1.62.684 0 1.332.036 2.016.144.684.108 1.152.216 1.404.252a9.37 9.37 0 00.108-1.296c0-.9-.216-1.584-.684-2.016-.468-.432-1.296-.648-2.556-.648-1.152 0-2.268.144-3.348.396a16.074 16.074 0 00-2.916 1.044l-1.332-3.816zm6.588 13.86c1.116 0 2.016-.252 2.7-.792.684-.54 1.152-1.08 1.476-1.656v-2.16c-.108-.036-.288-.108-.54-.144-.288-.036-.54-.108-.828-.144-.324-.036-.612-.072-.9-.108-.324-.036-.576-.036-.828-.036-1.296 0-2.268.216-2.88.684-.612.468-.936 1.08-.936 1.764 0 .864.252 1.512.756 1.944.468.432 1.152.648 1.98.648zM1091.378 352.353c-.828.54-1.8.972-2.916 1.26a14.64 14.64 0 01-3.564.432c-1.62 0-2.988-.252-4.104-.72-1.152-.468-2.052-1.152-2.736-2.052-.72-.9-1.224-1.944-1.548-3.168-.324-1.188-.468-2.556-.468-4.032 0-3.132.792-5.616 2.34-7.38 1.548-1.764 3.78-2.628 6.732-2.628 1.44 0 2.628.108 3.564.324.9.252 1.728.54 2.448.9l-1.224 4.032a12.202 12.202 0 00-1.836-.612 12.432 12.432 0 00-2.16-.18c-1.512 0-2.664.432-3.456 1.296-.828.9-1.224 2.304-1.224 4.248 0 .756.108 1.476.288 2.124.18.684.504 1.26.9 1.764s.936.9 1.548 1.188c.612.288 1.368.432 2.196.432 1.008 0 1.8-.108 2.412-.288a7.45 7.45 0 001.656-.72l1.152 3.78zM1108.658 352.353c-.828.54-1.8.972-2.916 1.26a14.64 14.64 0 01-3.564.432c-1.62 0-2.988-.252-4.104-.72-1.152-.468-2.052-1.152-2.736-2.052-.72-.9-1.224-1.944-1.548-3.168-.324-1.188-.468-2.556-.468-4.032 0-3.132.792-5.616 2.34-7.38 1.548-1.764 3.78-2.628 6.732-2.628 1.44 0 2.628.108 3.564.324.9.252 1.728.54 2.448.9l-1.224 4.032a12.202 12.202 0 00-1.836-.612 12.432 12.432 0 00-2.16-.18c-1.512 0-2.664.432-3.456 1.296-.828.9-1.224 2.304-1.224 4.248 0 .756.108 1.476.288 2.124.18.684.504 1.26.9 1.764s.936.9 1.548 1.188c.612.288 1.368.432 2.196.432 1.008 0 1.8-.108 2.412-.288a7.45 7.45 0 001.656-.72l1.152 3.78zM1113.014 334.605h5.04v18.9h-5.04v-18.9zm-.756-4.068c0-.756.288-1.404.828-1.944.54-.504 1.332-.756 2.34-.756 1.044 0 1.836.252 2.448.792.612.54.9 1.152.9 1.908 0 .684-.288 1.296-.9 1.8-.612.504-1.404.756-2.448.756-1.008 0-1.8-.252-2.34-.756-.54-.504-.828-1.116-.828-1.8zM287.88 217.919c0-9.6 1.84-16.8 5.52-21.68 3.6-4.88 8.8-7.28 15.52-7.28 7.2 0 12.48 2.4 15.92 7.12 3.44 4.8 5.12 12.08 5.12 21.84 0 9.6-1.84 16.8-5.52 21.68-3.68 4.88-9.04 7.28-16.08 7.28-3.68 0-6.8-.64-9.36-2-2.64-1.28-4.72-3.2-6.32-5.68-1.68-2.48-2.88-5.44-3.6-9.04-.8-3.6-1.2-7.68-1.2-12.24zm8.96 0c0 3.84.24 7.36.64 10.48s1.04 5.84 2 8.08c.88 2.24 2.08 4 3.52 5.2 1.44 1.2 3.2 1.84 5.28 1.84 4.72 0 8-2.08 9.92-6.24 1.84-4.08 2.8-10.56 2.8-19.36 0-3.84-.16-7.36-.48-10.48-.4-3.12-1.04-5.84-1.92-8.08-.96-2.24-2.24-4-3.76-5.2-1.52-1.2-3.52-1.84-5.92-1.84-4.4 0-7.52 2.08-9.36 6.16-1.84 4.16-2.72 10.64-2.72 19.44zM437 245.919h-26.48v-5.12h9.12v-45.12l-9.44 4.96-2.16-3.92 11.6-6.8h8.4v50.88H437v5.12zM550.76 245.919h-26.48v-5.12h9.12v-45.12l-9.44 4.96-2.16-3.92 11.6-6.8h8.4v50.88h8.96v5.12zM639.8 203.279h-7.68v-8.88c2.08-1.6 4.56-2.88 7.52-3.84s6.16-1.44 9.68-1.44c2.96 0 5.6.4 7.76 1.12 2.16.72 4 1.76 5.44 2.96 1.36 1.28 2.4 2.72 3.12 4.4.64 1.68.96 3.44.96 5.28 0 3.36-.8 6.72-2.48 10.08a48.781 48.781 0 01-6.24 9.52 66.809 66.809 0 01-8.24 8.24c-2.96 2.48-5.84 4.64-8.56 6.4l-1.76 1.12c-.4.24-.88.56-1.28.8-.4.32-.72.56-.88.64v.32l5.2-.48h18.56l1.6-1.6v-7.68h5.12v15.68h-36.32v-6.72c1.36-.8 2.96-1.84 4.88-3.2 1.84-1.36 3.68-2.88 5.68-4.64 2-1.76 3.92-3.68 5.84-5.84 1.92-2.08 3.6-4.32 5.12-6.64 1.52-2.32 2.72-4.64 3.68-7.12.88-2.4 1.36-4.8 1.36-7.28 0-1.52-.24-2.96-.64-4.32-.48-1.36-1.12-2.48-2-3.52-.88-1.04-2-1.84-3.28-2.4-1.36-.56-2.8-.8-4.48-.8-1.76 0-3.2.16-4.32.4-1.2.24-2.32.64-3.36 1.04v8.4zM761.64 242.399c2 0 3.76-.32 5.36-.96 1.6-.56 2.96-1.44 4.16-2.48 1.2-1.04 2.08-2.32 2.72-3.76.64-1.36.96-2.88.96-4.56 0-1.92-.32-3.6-1.04-5.12-.72-1.44-1.6-2.64-2.8-3.68-1.2-.96-2.64-1.68-4.24-2.24-1.6-.48-3.28-.72-5.12-.72h-5.68v-5.44l18-17.28v-.32l-4.8.48h-16.08l-1.6 1.6v6.4h-5.12v-14.4h34.56v6.24l-15.04 14.08-3.12 2.88c-.4.4-.72.56-.8.64v.16c.08 0 .24 0 .56-.08.32-.08.64-.16 1.04-.24.4-.08.88-.16 1.44-.24 2.8.08 5.36.48 7.68 1.2 2.32.72 4.24 1.76 5.92 3.12 1.68 1.44 2.96 3.04 3.84 4.96.88 2 1.28 4.24 1.28 6.8 0 2.64-.56 5.04-1.68 7.2-1.2 2.16-2.72 3.92-4.72 5.44-2 1.52-4.32 2.64-6.96 3.44-2.64.8-5.52 1.2-8.56 1.2-1.36 0-2.88-.08-4.4-.32-1.6-.24-3.12-.48-4.64-.88-1.52-.32-2.88-.72-4.16-1.28-1.36-.48-2.4-1.04-3.28-1.68v-9.44H753v7.12c.72.56 1.92 1.04 3.52 1.44 1.52.48 3.28.72 5.12.72zM888.76 185.919h5.12v10.4h-24.4v15.2h5.12c2.96 0 5.76.4 8.24 1.12 2.48.72 4.64 1.84 6.48 3.2 1.76 1.36 3.12 3.12 4.16 5.2.96 2.08 1.44 4.4 1.44 7.04 0 3.12-.64 5.76-1.76 8.08-1.2 2.4-2.8 4.32-4.8 5.84-2 1.6-4.24 2.8-6.8 3.52-2.64.8-5.28 1.2-8 1.2-2.48 0-4.88-.24-7.2-.8-2.32-.56-4.4-1.44-6.08-2.64v-8.56h7.68v6.96c.56.08 1.36.24 2.4.4 1.04.24 2.08.32 3.12.32 2 0 3.76-.32 5.36-.96 1.6-.56 2.96-1.44 4.16-2.56 1.12-1.12 2-2.48 2.64-4 .56-1.52.88-3.2.88-5.04 0-2.16-.4-4-1.28-5.52-.88-1.52-2-2.72-3.52-3.76-1.52-.96-3.2-1.68-5.2-2.16-2-.4-4.16-.64-6.48-.64h-5.68v-27.84h22.8l1.6-1.6v-2.4zM971.88 233.359c0-1.84.32-3.52 1.04-5.2.64-1.6 1.6-3.12 2.8-4.48 1.2-1.36 2.56-2.56 4.16-3.68 1.6-1.04 3.36-2 5.2-2.8-3.36-1.52-6-3.44-7.92-5.6-2-2.16-2.96-5.04-2.96-8.56 0-2.08.4-4 1.28-5.68.8-1.68 2-3.2 3.52-4.48 1.52-1.2 3.44-2.16 5.68-2.88 2.16-.72 4.64-1.04 7.36-1.04 5.36 0 9.52 1.2 12.48 3.52 2.96 2.4 4.4 5.44 4.4 9.2 0 3.12-1.04 5.92-2.96 8.48-2 2.64-4.8 4.56-8.24 5.84 4.24 2 7.52 4.32 10 6.8 2.4 2.56 3.6 5.68 3.6 9.44 0 2-.4 3.92-1.28 5.68-.88 1.76-2.24 3.28-3.92 4.64-1.76 1.36-3.92 2.4-6.4 3.12-2.48.8-5.36 1.2-8.64 1.2-3.28 0-6.08-.4-8.48-1.12-2.4-.72-4.4-1.76-6-2.96-1.6-1.2-2.8-2.64-3.52-4.32-.8-1.68-1.2-3.36-1.2-5.12zm31.2.32c0-1.84-.4-3.44-1.2-4.88-.8-1.44-1.84-2.72-3.2-3.92-1.36-1.12-2.96-2.16-4.64-3.12-1.76-.96-3.6-1.84-5.52-2.64-1.68.88-3.04 1.92-4.16 2.96-1.12 1.12-2 2.24-2.64 3.44-.72 1.2-1.2 2.4-1.44 3.6-.24 1.2-.4 2.24-.4 3.28 0 1.28.24 2.56.64 3.84.4 1.28 1.12 2.4 2.08 3.44.88 1.04 2.16 1.84 3.68 2.48 1.52.64 3.36.96 5.52.96 1.84 0 3.52-.32 4.96-.88 1.36-.56 2.56-1.28 3.52-2.16.88-.88 1.6-1.84 2.08-3.04.48-1.12.72-2.24.72-3.36zm-20.64-31.76c0 1.6.32 3.04.96 4.24.64 1.28 1.52 2.4 2.64 3.36 1.04.96 2.32 1.84 3.76 2.64s2.96 1.52 4.56 2.24c2.48-1.84 4.24-3.6 5.2-5.44.88-1.76 1.36-3.76 1.36-5.92 0-3.28-.8-5.84-2.32-7.68-1.6-1.76-3.84-2.64-6.72-2.64-1.6 0-2.96.24-4.16.8-1.2.56-2.16 1.2-2.88 2.08-.8.88-1.36 1.84-1.76 2.88-.4 1.12-.64 2.24-.64 3.44zM1119.56 245.919h-26.48v-5.12h9.12v-45.12l-9.44 4.96-2.16-3.92 11.6-6.8h8.4v50.88h8.96v5.12zM1150.92 242.399c2 0 3.76-.32 5.36-.96 1.6-.56 2.96-1.44 4.16-2.48 1.2-1.04 2.08-2.32 2.72-3.76.64-1.36.96-2.88.96-4.56 0-1.92-.32-3.6-1.04-5.12-.72-1.44-1.6-2.64-2.8-3.68-1.2-.96-2.64-1.68-4.24-2.24-1.6-.48-3.28-.72-5.12-.72h-5.68v-5.44l18-17.28v-.32l-4.8.48h-16.08l-1.6 1.6v6.4h-5.12v-14.4h34.56v6.24l-15.04 14.08-3.12 2.88c-.4.4-.72.56-.8.64v.16c.08 0 .24 0 .56-.08.32-.08.64-.16 1.04-.24.4-.08.88-.16 1.44-.24 2.8.08 5.36.48 7.68 1.2 2.32.72 4.24 1.76 5.92 3.12 1.68 1.44 2.96 3.04 3.84 4.96.88 2 1.28 4.24 1.28 6.8 0 2.64-.56 5.04-1.68 7.2-1.2 2.16-2.72 3.92-4.72 5.44-2 1.52-4.32 2.64-6.96 3.44-2.64.8-5.52 1.2-8.56 1.2-1.36 0-2.88-.08-4.4-.32-1.6-.24-3.12-.48-4.64-.88-1.52-.32-2.88-.72-4.16-1.28-1.36-.48-2.4-1.04-3.28-1.68v-9.44h7.68v7.12c.72.56 1.92 1.04 3.52 1.44 1.52.48 3.28.72 5.12.72zM1256.6 203.279h-7.68v-8.88c2.08-1.6 4.56-2.88 7.52-3.84s6.16-1.44 9.68-1.44c2.96 0 5.6.4 7.76 1.12 2.16.72 4 1.76 5.44 2.96 1.36 1.28 2.4 2.72 3.12 4.4.64 1.68.96 3.44.96 5.28 0 3.36-.8 6.72-2.48 10.08a48.781 48.781 0 01-6.24 9.52 66.809 66.809 0 01-8.24 8.24c-2.96 2.48-5.84 4.64-8.56 6.4l-1.76 1.12c-.4.24-.88.56-1.28.8-.4.32-.72.56-.88.64v.32l5.2-.48h18.56l1.6-1.6v-7.68h5.12v15.68h-36.32v-6.72c1.36-.8 2.96-1.84 4.88-3.2 1.84-1.36 3.68-2.88 5.68-4.64 2-1.76 3.92-3.68 5.84-5.84 1.92-2.08 3.6-4.32 5.12-6.64 1.52-2.32 2.72-4.64 3.68-7.12.88-2.4 1.36-4.8 1.36-7.28 0-1.52-.24-2.96-.64-4.32-.48-1.36-1.12-2.48-2-3.52-.88-1.04-2-1.84-3.28-2.4-1.36-.56-2.8-.8-4.48-.8-1.76 0-3.2.16-4.32.4-1.2.24-2.32.64-3.36 1.04v8.4zM1329.32 245.919h-26.48v-5.12h9.12v-45.12l-9.44 4.96-2.16-3.92 11.6-6.8h8.4v50.88h8.96v5.12zM1426.44 242.399c2 0 3.76-.32 5.36-.96 1.6-.56 2.96-1.44 4.16-2.48 1.2-1.04 2.08-2.32 2.72-3.76.64-1.36.96-2.88.96-4.56 0-1.92-.32-3.6-1.04-5.12-.72-1.44-1.6-2.64-2.8-3.68-1.2-.96-2.64-1.68-4.24-2.24-1.6-.48-3.28-.72-5.12-.72h-5.68v-5.44l18-17.28v-.32l-4.8.48h-16.08l-1.6 1.6v6.4h-5.12v-14.4h34.56v6.24l-15.04 14.08-3.12 2.88c-.4.4-.72.56-.8.64v.16c.08 0 .24 0 .56-.08.32-.08.64-.16 1.04-.24.4-.08.88-.16 1.44-.24 2.8.08 5.36.48 7.68 1.2 2.32.72 4.24 1.76 5.92 3.12 1.68 1.44 2.96 3.04 3.84 4.96.88 2 1.28 4.24 1.28 6.8 0 2.64-.56 5.04-1.68 7.2-1.2 2.16-2.72 3.92-4.72 5.44-2 1.52-4.32 2.64-6.96 3.44-2.64.8-5.52 1.2-8.56 1.2-1.36 0-2.88-.08-4.4-.32-1.6-.24-3.12-.48-4.64-.88-1.52-.32-2.88-.72-4.16-1.28-1.36-.48-2.4-1.04-3.28-1.68v-9.44h7.68v7.12c.72.56 1.92 1.04 3.52 1.44 1.52.48 3.28.72 5.12.72zM1496.6 245.919h-23.52v-5.12h8.24v-10.32h-27.44v-5.12l27.44-35.44h8.4v35.44h9.92v5.12h-9.92v10.32h6.88v5.12zm-15.28-43.92l.56-5.76h-.24l-3.12 5.76-16.64 21.28-2.96 2.64 5.76-.56h16.64v-23.36zM1569.4 241.279c0-1.68.56-2.96 1.68-3.92 1.12-.96 2.64-1.44 4.48-1.44 1.84 0 3.36.48 4.56 1.44 1.2.96 1.76 2.24 1.76 3.92 0 1.6-.56 2.88-1.76 3.84s-2.72 1.44-4.56 1.44c-1.84 0-3.36-.48-4.48-1.44-1.12-.96-1.68-2.24-1.68-3.84zM1594.52 241.279c0-1.68.56-2.96 1.68-3.92 1.12-.96 2.64-1.44 4.48-1.44 1.84 0 3.36.48 4.56 1.44 1.2.96 1.76 2.24 1.76 3.92 0 1.6-.56 2.88-1.76 3.84s-2.72 1.44-4.56 1.44c-1.84 0-3.36-.48-4.48-1.44-1.12-.96-1.68-2.24-1.68-3.84zM1619.64 241.279c0-1.68.56-2.96 1.68-3.92 1.12-.96 2.64-1.44 4.48-1.44 1.84 0 3.36.48 4.56 1.44 1.2.96 1.76 2.24 1.76 3.92 0 1.6-.56 2.88-1.76 3.84s-2.72 1.44-4.56 1.44c-1.84 0-3.36-.48-4.48-1.44-1.12-.96-1.68-2.24-1.68-3.84z" fill="#f4f4f5" fill-rule="nonzero"/></svg>