<svg id="visual" viewBox="0 0 1440 400" width="1440" height="400" xmlns="http://www.w3.org/2000/svg" xmlns:xlink="http://www.w3.org/1999/xlink" version="1.1"><rect x="0" y="0" width="1440" height="400" fill="#17100f"></rect><defs><linearGradient id="grad1_0" x1="72.2%" y1="0%" x2="100%" y2="100%"><stop offset="-22%" stop-color="#03042f" stop-opacity="1"></stop><stop offset="122%" stop-color="#03042f" stop-opacity="1"></stop></linearGradient></defs><defs><linearGradient id="grad2_0" x1="0%" y1="0%" x2="27.8%" y2="100%"><stop offset="-22%" stop-color="#03042f" stop-opacity="1"></stop><stop offset="122%" stop-color="#03042f" stop-opacity="1"></stop></linearGradient></defs><g transform="translate(1440, 0)"><path d="M0 400C-39.8 395.9 -79.6 391.8 -123.6 380.4C-167.6 369 -215.8 350.2 -221 304.2C-226.2 258.1 -188.4 184.8 -212.8 154.6C-237.1 124.4 -323.6 137.2 -365.2 118.7C-406.8 100.1 -403.4 50 -400 0L0 0Z" fill="#204880"></path></g><g transform="translate(0, 400)"><path d="M0 -400C31 -366.1 62.1 -332.3 104.1 -320.5C146.2 -308.8 199.2 -319.1 209.8 -288.8C220.4 -258.5 188.6 -187.6 218.4 -158.7C248.3 -129.8 339.9 -143 380.4 -123.6C421 -104.2 410.5 -52.1 400 0L0 0Z" fill="#204880"></path></g></svg>