<svg viewBox="0 0 8000 4500" xmlns="http://www.w3.org/2000/svg" fill-rule="evenodd" clip-rule="evenodd" stroke-linecap="round" stroke-linejoin="round" stroke-miterlimit="1.5"><path d="M0 0v4500h8000V0H0z" fill="#204880"/><path d="M4001.44 2252.95L5377.78 4125V375L4001.44 2252.95z" fill="#ffdf88"/><circle cx="4000" cy="2250" r="34.091" fill="none" stroke="#f4f4f5" stroke-width="16.67"/><circle cx="4000" cy="2250" r="3.409" fill="none" stroke="#f4f4f5" stroke-width="16.67"/><circle cx="4000" cy="2250" r="68.182" fill="none" stroke="#f4f4f5" stroke-width="16.67"/><circle cx="4000" cy="2250" r="102.273" fill="none" stroke="#f4f4f5" stroke-width="16.67"/><circle cx="4000" cy="2250" r="170.455" fill="none" stroke="#f4f4f5" stroke-width="16.67"/><circle cx="4000" cy="2250" r="272.727" fill="none" stroke="#f4f4f5" stroke-width="16.67"/><circle cx="4000" cy="2250" r="443.182" fill="none" stroke="#f4f4f5" stroke-width="16.67"/><circle cx="4000" cy="2250" r="715.909" fill="none" stroke="#f4f4f5" stroke-width="16.67"/><circle cx="4000" cy="2250" r="1159.09" fill="none" stroke="#f4f4f5" stroke-width="16.67"/><circle cx="4000" cy="2250" r="1875" fill="none" stroke="#f4f4f5" stroke-width="16.67"/><path d="M5060.78 1180.02l22.962 637.405-393.255-502.63 370.293-134.775zM4659.45 1588.4l14.19 393.902-243.023-310.614 228.833-83.288zM4406.03 1840.41l8.772 243.503-150.232-192.016 141.46-51.487zM4248.67 1998.99l5.418 150.399-92.791-118.598 87.373-31.801zM4156.87 2096.85l3.354 93.105-57.442-73.418 54.088-19.687zM5057.95 3320.42l22.962-637.405-393.255 502.629 370.293 134.776zM4653.7 2906.89l14.19-393.902-243.023 310.614 228.833 83.288zM4405.47 2662.58l8.772-243.503-150.232 192.015 141.46 51.488zM4248.88 2506.14l5.418-150.399-92.791 118.598 87.373 31.801zM4157.23 2404.63l3.354-93.104-57.442 73.417 54.088 19.687z" fill="#94c7bf"/></svg>