<svg viewBox="0 0 1920 1080" xmlns="http://www.w3.org/2000/svg" fill-rule="evenodd" clip-rule="evenodd" stroke-linejoin="round" stroke-miterlimit="2"><path fill="#204880" d="M.007 1079.967V-.03h1920v1079.997z"/><path d="M737.863 535.47s58.305 10.006 58.305 0c-34.737-7.31-102.985 4.9-137.665-79.386 50.264-42.994 205.471-41.618 222.96-55.01 6.7-5.134-28.559 1.378-33.528-3.031 44.62-57.862 104.308-76.031 115.058-79.244 23.209-6.94 75.674 7.248 100.185-11.72 17.985-13.913 97.082-79.829 129.262-104.594 19.54-16.604 20.905-4.084 26.507 8.48 7.772 17.428 24.25 53.397 16.835 71.096-39.418 41.218 20.909 45.133 23.552 175.336-28.057-68.11-65.42-88.58-78.719-103.332-2.873 2.571-4.352 4.886-7.364 9.52-46.456 63.998.303 47.47 1.17 127.264-22.708-47.416-34.634-46.268-48.607-63.346-2.934 4.123-3.516 4.904-5.174 7.004-28.84 38.866-84.552 106.789-84.55 114.194 0 4.86 86.764 116.328 88.04 118.151 4.96.355 44.539-35.422 49.474-62.228-.862 79.543-48.818 63.846-1.642 126.868 3.272 3.579 4.384 6.306 7.964 10.479 32.645-22.997 57.656-56.331 81.57-104.327-5.44 131.901-63.26 129.059-50.055 147.836 2.124 3.019-7.174 14.543-23.685 16.055-12.935 1.18-177.257-106.065-177.257-106.065s-57.95 130.775-169.91 190.025c53.402-141.708 1.986-197.837 1.986-197.837s-28.23 59.95-122.053 89.217c63.994-74.654 17.34-241.406 17.34-241.406zm160.957-82.01c9.651-56.167 33.747-69.455 61.31-75.323 27.562-5.87 58.588-4.321 82.098-30.817-33.236 132.164-114.39 73.435-143.408 106.14z" fill="#f4f4f5"/></svg>