<svg viewBox="0 0 558 165" xmlns="http://www.w3.org/2000/svg" xml:space="preserve" style="fill-rule:evenodd;clip-rule:evenodd;stroke-linejoin:round;stroke-miterlimit:2"><path d="M163.062 230.561h1.027c16.418-.57 22.233-9.122 22.233-17.673-.114-7.981-8.095-13.91-14.48-16.419l-11.516-4.675c-6.613-2.622-10.376-6.271-10.49-11.63 0-5.473 5.587-11.059 12.998-11.173 5.929 0 11.516 1.824 16.875 7.069 1.597 1.482 2.851 2.85 4.219 5.017l1.14-.913c-5.245-8.665-12.656-14.252-24.4-14.252H159.3c-14.025.456-18.699 12.086-18.699 17.901.114 6.157 4.902 12.428 11.402 15.165l13.682 5.701c5.815 2.85 11.516 6.157 11.744 11.63 0 4.788-4.903 10.831-14.367 10.831-10.261 0-20.409-5.016-25.198-17.673l-1.368.456c4.105 11.63 13.226 20.638 26.566 20.638ZM193.848 220.641c1.254 7.069 7.639 9.806 14.708 9.806 13.796.114 23.488-9.692 27.935-13.568 0 6.385-.912 13.796 6.385 13.796s14.252-7.867 14.252-7.867l-1.14-.799c-5.929 6.158-8.893 3.763-8.893-.456 0-4.104-.114-16.646-.114-34.091 0-17.559-12.428-23.374-28.049-21.094-15.621 2.166-21.55 10.718-18.471 14.937 2.964 4.104 8.437-2.395 16.533-3.079 6.385-.57 8.209 1.71 8.437 4.561.798 7.411-15.165 13.796-20.409 17.331-6.614 4.561-12.771 10.832-11.174 20.523Zm22.461-22.005c9.008-6.842 11.174-11.972 10.604-16.305-.684-5.701-7.525-7.183-14.936-6.385-1.483.114-3.079-.228-2.281-1.483 2.053-3.42 7.07-6.271 12.999-6.385 6.955-.114 13.796 4.561 13.796 19.27v27.706c-2.851 2.737-8.666 6.385-12.884 8.21-6.043 2.85-15.507 1.71-18.015-4.675-2.509-6.499 1.71-13.112 10.717-19.953ZM256.9 168.306c2.167.114 7.412.685 7.412 3.535v28.277c0 18.015.798 30.557 15.164 30.557 13.226 0 23.716-20.295 26.567-31.811v21.435c0 1.368.114 2.737.228 3.991.228 3.877 2.166 6.271 6.157 6.271 5.017 0 10.832-4.219 14.138-7.867l-1.14-.799c-5.929 6.158-8.894 3.763-8.894-.456l-.114-54.273h-10.375v24.742c-.684 9.692-10.946 32.838-22.576 32.838-8.438 0-8.78-10.148-8.78-24.628v-32.952H256.9v1.14ZM328.504 168.306c2.965.456 7.07 1.141 7.982 3.763l16.077 44.582c3.99 11.173 6.499 13.568 11.173 13.568 4.675 0 6.728-2.737 10.49-13.682l14.937-43.898c1.14-3.306 5.815-3.991 8.779-4.333v-1.14h-17.445v1.14c1.825.228 8.21.913 6.955 4.333l-14.936 43.898c-1.026 3.192-2.052 4.332-4.333 4.332-2.166 0-2.85-1.368-3.876-4.218l-15.849-44.582c-1.254-3.535 5.131-3.535 6.955-3.763v-1.14h-26.909v1.14ZM401.933 220.641c1.254 7.069 7.639 9.806 14.708 9.806 13.797.114 23.488-9.692 27.935-13.568 0 6.385-.912 13.796 6.385 13.796s14.253-7.867 14.253-7.867l-1.141-.799c-5.929 6.158-8.893 3.763-8.893-.456 0-4.104-.114-16.646-.114-34.091 0-17.559-12.428-23.374-28.049-21.094-15.62 2.166-21.549 10.718-18.471 14.937 2.965 4.104 8.437-2.395 16.533-3.079 6.385-.57 8.209 1.71 8.437 4.561.798 7.411-15.164 13.796-20.409 17.331-6.613 4.561-12.77 10.832-11.174 20.523Zm22.462-22.005c9.007-6.842 11.174-11.972 10.604-16.305-.685-5.701-7.526-7.183-14.937-6.385-1.482.114-3.079-.228-2.28-1.483 2.052-3.42 7.069-6.271 12.998-6.385 6.955-.114 13.796 4.561 13.796 19.27v27.706c-2.85 2.737-8.665 6.385-12.884 8.21-6.043 2.85-15.507 1.71-18.015-4.675-2.509-6.499 1.71-13.112 10.718-19.953Z" style="fill:#f6f6eb;fill-rule:nonzero" transform="translate(-166.358 -172.177) scale(1.22786)"/><path d="M494.403 273.09c17.673 0 27.25-11.858 27.706-20.751.456-8.894-2.736-12.999-8.095-16.989-10.262-7.754-26.453-13.112-25.54-18.015 1.71-9.008 27.82-6.613 27.82-29.189 0-9.122-4.561-16.077-11.858-19.498h17.331v-1.482h-21.435a29.747 29.747 0 0 0-7.298-.912c-13.454 0-26.11 8.78-26.11 22.006 0 14.822 16.761 20.295 18.357 26.566-4.903 3.877-9.692 8.78-2.964 13.455-5.929 10.033-21.094 15.734-21.094 28.504 0 11.744 15.393 16.305 33.18 16.305Zm-3.079-105.354c8.209 0 14.252 6.385 14.252 20.068 0 13.682-5.586 19.611-18.813 26.224-2.394-7.981-9.577-10.832-9.577-25.996 0-13.112 5.815-20.296 14.138-20.296Zm-20.181 82.322c1.026-8.209 8.893-13.226 12.428-20.979 4.903 3.078 36.828 16.076 35.916 27.934-1.026 13.227-50.625 12.2-48.344-6.955ZM528.38 197.609c0 15.621 13.113 32.952 29.873 32.952 15.393 0 25.655-10.718 30.672-22.804l-1.255-.456c-5.245 10.832-14.366 19.839-27.478 18.471-11.858-1.254-18.015-14.024-18.015-14.024.456-8.324 4.104-20.98 20.979-20.98l4.561.114c10.49 0 13.226-4.218 13.226-8.209 0-10.832-12.77-16.875-22.12-16.875-17.444 0-30.443 15.165-30.443 31.811Zm27.707-30.329c9.578 0 15.279 9.236 15.279 17.901 0 3.307-3.877 3.307-6.614 3.307-17.33 0-22.575 11.288-23.602 20.295-1.368-4.675-2.166-9.121-2.166-14.48 0-10.604 3.307-27.023 17.103-27.023Z" style="fill:#f6f6eb;fill-rule:nonzero" transform="translate(-166.358 -172.177) scale(1.22786)"/></svg>