<svg viewBox="0 0 8000 4500" xmlns="http://www.w3.org/2000/svg" fill-rule="evenodd" clip-rule="evenodd" stroke-linecap="round" stroke-linejoin="round" stroke-miterlimit="1.5"><path d="M0 0v4500h8000V0H0z" fill="#204880"/><path d="M4302.5 1130.85l441.713-605.671 336.649 245.517-396.643 543.872c1.071.784 2.15 1.577 3.227 2.373l-685.999 936.015 684.585 931.147c-1.229.904-2.46 1.807-3.669 2.689l398.499 546.417-336.649 245.516-444.09-608.931c-95.755 25.633-196.354 39.298-300.12 39.298-639.72 0-1159.09-519.371-1159.09-1159.09 0-18.296.425-36.494 1.267-54.602l-674.394-389.967 800.166-83.222c192.194-374.695 582.393-631.3 1032.05-631.3 104.642 0 206.063 13.897 302.497 39.94z" fill="#17100f"/><circle cx="4000" cy="2250" r="34.091" fill="none" stroke="#f4f4f5" stroke-width="16.67"/><circle cx="4000" cy="2250" r="3.409" fill="none" stroke="#f4f4f5" stroke-width="16.67"/><circle cx="4000" cy="2250" r="68.182" fill="none" stroke="#f4f4f5" stroke-width="16.67"/><circle cx="4000" cy="2250" r="102.273" fill="none" stroke="#f4f4f5" stroke-width="16.67"/><circle cx="4000" cy="2250" r="170.455" fill="none" stroke="#f4f4f5" stroke-width="16.67"/><circle cx="4000" cy="2250" r="272.727" fill="none" stroke="#f4f4f5" stroke-width="16.67"/><circle cx="4000" cy="2250" r="443.182" fill="none" stroke="#f4f4f5" stroke-width="16.67"/><circle cx="4000" cy="2250" r="715.909" fill="none" stroke="#f4f4f5" stroke-width="16.67"/><circle cx="4000" cy="2250" r="1159.09" fill="none" stroke="#f4f4f5" stroke-width="16.67"/><circle cx="4000" cy="2250" r="1875" fill="none" stroke="#f4f4f5" stroke-width="16.67"/><path d="M5060.78 1180.02l22.962 637.405-393.255-502.63 370.293-134.775zM4659.45 1588.4l14.19 393.902-243.023-310.614 228.833-83.288zM4406.03 1840.41l8.772 243.503-150.232-192.016 141.46-51.487zM4248.67 1998.99l5.418 150.399-92.791-118.598 87.373-31.801zM4156.87 2096.85l3.354 93.105-57.442-73.418 54.088-19.687zM5057.95 3320.42l22.962-637.405-393.255 502.629 370.293 134.776zM4653.7 2906.89l14.19-393.902-243.023 310.614 228.833 83.288zM4405.47 2662.58l8.772-243.503-150.232 192.015 141.46 51.488zM4248.88 2506.14l5.418-150.399-92.791 118.598 87.373 31.801zM4157.23 2404.63l3.354-93.104-57.442 73.417 54.088 19.687z" fill="#94c7bf"/><path d="M4001.44 2252.95L5377.78 4125V375L4001.44 2252.95z" fill="none" stroke="#ffdf88" stroke-width="16.67"/><path d="M3878.18 1268.42c65.827 114.015-413.161 238.538-413.161 238.538s347.335-352.553 413.161-238.538z" fill="#204880"/></svg>