<?xml version="1.0" encoding="UTF-8" standalone="no"?>
<!DOCTYPE svg PUBLIC "-//W3C//DTD SVG 1.1//EN" "http://www.w3.org/Graphics/SVG/1.1/DTD/svg11.dtd">
<svg width="100%" height="100%" viewBox="0 0 64 64" version="1.1" xmlns="http://www.w3.org/2000/svg" xmlns:xlink="http://www.w3.org/1999/xlink" xml:space="preserve" xmlns:serif="http://www.serif.com/" style="fill-rule:evenodd;clip-rule:evenodd;stroke-linejoin:round;stroke-miterlimit:2;">
    <g transform="matrix(72,0,0,72,35.312,50)">
        <path d="M0.025,-0.189L0.034,-0.013C0.072,0.003 0.14,0.01 0.19,0.01C0.269,0.01 0.386,-0.035 0.386,-0.151C0.386,-0.334 0.112,-0.289 0.112,-0.392C0.112,-0.431 0.136,-0.457 0.178,-0.458C0.242,-0.459 0.302,-0.411 0.338,-0.346L0.344,-0.345L0.344,-0.511L0.307,-0.49L0.197,-0.49C0.095,-0.49 0.03,-0.425 0.03,-0.351C0.03,-0.153 0.295,-0.211 0.295,-0.093C0.295,-0.048 0.261,-0.028 0.22,-0.028C0.138,-0.028 0.059,-0.103 0.033,-0.189L0.025,-0.189Z" style="fill:rgb(255,223,136);fill-rule:nonzero;"/>
    </g>
    <g transform="matrix(72,0,0,72,-1.192,50)">
        <path d="M0.16,0C0.219,-0.095 0.288,-0.23 0.323,-0.373L0.311,-0.257L0.311,0L0.502,0L0.428,-0.086L0.428,-0.436L0.466,-0.49L0.352,-0.49C0.143,-0.486 0.029,-0.349 0.029,-0.163C0.029,-0.082 0.056,-0.01 0.086,0.011L0.16,0ZM0.176,-0.077C0.164,-0.077 0.153,-0.119 0.153,-0.217C0.153,-0.318 0.179,-0.46 0.313,-0.461C0.312,-0.355 0.195,-0.077 0.176,-0.077Z" style="fill:rgb(255,223,136);fill-rule:nonzero;"/>
    </g>
</svg>
