<svg viewBox="0 0 500 220" xmlns="http://www.w3.org/2000/svg" fill-rule="evenodd" clip-rule="evenodd" stroke-linejoin="round" stroke-miterlimit="2"><path d="M29.707 72.296h28.206l6.11 17.346-11.18 10.955H90.54l-8.84-11.607-27.945-77.73H35.426l6.37 15.39-22.228 62.861L8 100.597h26.646L23.468 90.164l6.239-17.868zm14.168-40.168l12.738 36.517H31.007l12.868-36.517zM130.414 100.597h34.835l-9.878-9.912V55.994c0-12.26-6.24-20.867-16.898-20.867-5.2 0-13.648 4.043-18.847 12.129V35.388l-24.437 8.738 8.839 10.042v36.517l-9.879 9.912h34.835l-9.358-9.912v-40.82c4.159-5.609 9.098-6.522 11.308-6.522 7.409 0 8.839 6.391 8.839 17.085v30.257l-9.359 9.912z" fill-rule="nonzero"/><path d="M169.64 44.126l8.838 10.042v35.213l-9.618 11.216h34.835l-9.619-11.216V35.388l-24.437 8.738z"/><path d="M173.67 16.82l10.479-3.245 10.479 3.245-10.48 11.896L173.67 16.82zM232.522 44.909v-9.521l-24.436 8.738 8.838 10.042v36.517l-9.618 9.912h34.835l-9.619-9.912V47.908c4.03-4.304 6.76-5.217 10.269-5.217 6.239 0 9.488 5.348 9.488 16.433v31.692l-9.488 9.781h34.835l-9.619-9.912h-.13V53.907c0-1.825-.13-3.651-.39-5.347 4.29-4.825 7.15-5.869 10.789-5.869 6.369 0 9.488 5.478 9.488 16.433v31.692l-9.488 9.781h34.835l-9.619-9.912h-.13V55.994c0-12.129-7.409-20.867-17.547-20.867-7.02 0-14.298 4.304-19.498 11.477-2.47-6.912-8.708-11.477-15.987-11.477-6.24 0-12.349 3.391-17.808 9.782zM346.486 89.642v10.955h25.346l-9.618-8.477h-.13V46.604l2.86-9.912H316.46V57.56h.91c7.799-13.042 13.778-18.389 20.797-18.389 6.37 0 8.319 4.304 8.319 19.693-24.827 9.912-33.145 16.824-33.145 28.04 0 8.869 5.069 14.998 13.128 14.998 5.589 0 10.398-2.869 20.017-12.26zm0-28.04v24.91c-4.16 4.304-6.63 5.086-9.099 5.086-4.68 0-6.889-2.869-6.889-8.999 0-8.346 4.16-15.128 15.988-20.997zM384.831 43.213v46.168l-9.618 11.216h34.835l-9.619-11.216V8.001l-24.436 7.433 8.838 10.042v4.956l-8.838 2.739 8.838 10.042zM94.15 155.623l1.17 22.965c4.941 2.087 13.784 3 20.287 3 10.274 0 25.489-5.87 25.489-21.007 0-23.879-35.633-18.007-35.633-31.447 0-5.089 3.121-8.481 8.583-8.612 8.323-.13 16.126 6.133 20.808 14.615l.78.13v-21.66l-4.812 2.74h-14.305c-13.265 0-21.718 8.481-21.718 18.137 0 25.836 34.463 18.268 34.463 33.665 0 5.872-4.422 8.481-9.754 8.481-10.664 0-20.937-9.786-24.319-21.007h-1.04zM177.273 169.296v10.955h25.346l-9.618-8.477h-.13v-45.516l2.86-9.912h-48.484v20.867h.91c7.799-13.042 13.778-18.389 20.797-18.389 6.37 0 8.319 4.304 8.319 19.693-24.827 9.912-33.145 16.824-33.145 28.04 0 8.869 5.069 14.998 13.128 14.998 5.589 0 10.398-2.869 20.017-12.26zm0-28.04v24.91c-4.16 4.304-6.63 5.086-9.099 5.086-4.68 0-6.889-2.869-6.889-8.999 0-8.346 4.16-15.128 15.988-20.997zM224.651 156.254v-40.038h-25.346l9.749 10.042v34.43c0 12.26 6.239 20.867 16.897 20.867 7.28 0 13.258-4.434 17.288-10.955v10.434l24.436-.783-8.838-9.39v-54.645H233.62l9.619 10.042v40.82c-2.86 3.913-6.37 6.13-9.749 6.13-7.409 0-8.839-6.39-8.839-16.954zM325.944 116.346h-23.007l11.829 8.217-14.428 35.995-13.519-35.865 9.49-8.347h-34.316l7.279 8.217 23.267 58.557h2.6l23.526-58.557 7.28-8.217zM359.609 169.296v10.955h25.346l-9.618-8.477h-.13v-45.516l2.86-9.912h-48.484v20.867h.91c7.799-13.042 13.778-18.389 20.797-18.389 6.37 0 8.319 4.304 8.319 19.693-24.827 9.912-33.145 16.824-33.145 28.04 0 8.869 5.069 14.998 13.128 14.998 5.589 0 10.398-2.869 20.017-12.26zm0-28.04v24.91c-4.16 4.304-6.63 5.086-9.099 5.086-4.68 0-6.889-2.869-6.889-8.999 0-8.346 4.16-15.128 15.988-20.997zM438.667 105.057l-.52-.13-16.507 11.998c-1.17-.391-2.08-.652-5.59-.652-15.338 0-27.816 10.825-27.816 24.65 0 8.476 4.81 15.388 12.738 18.649-8.708 4.565-12.738 10.042-12.738 15.259 0 4.825 3.38 8.738 7.8 10.564-7.02 3-11.05 6.26-11.05 11.868 0 8.216 9.75 14.737 24.697 14.737 19.887 0 31.846-13.563 31.846-28.822 0-4.826-1.17-7.695-2.99-10.695h-32.625c-4.29 0-7.15-1.565-7.15-5.608 0-2.347.91-4.303 4.81-6.52 1.43.652 3.25 1.043 7.15 1.043 15.467 0 27.685-11.477 27.685-25.17 0-4.826-1.56-9.13-4.55-12.651 2.99-6.26 4.16-10.825 4.81-18.52zm-28.206 13.955c6.11 0 11.179 10.433 11.179 25.04 0 9.13-1.43 14.868-6.11 14.868-6.109 0-10.658-10.694-10.658-25.953 0-8.478.78-13.955 5.59-13.955zm-11.308 68.209h30.805c1.3 1.304 1.82 5.086 1.82 7.433 0 9.651-10.008 14.998-20.277 14.998-11.308 0-16.638-5.477-16.638-13.563 0-4.173 1.43-6.651 4.29-8.868z" fill-rule="nonzero"/><path d="M456.764 147.17c2.081 14.962 10.508 21.278 17.644 21.278 6.245 0 14.04-4.439 15.992-9.911l1.952.783c-4.684 11.87-13.911 23.859-26.781 23.859-14.432 0-24.05-15.253-24.05-30.908 0-16.82 10.399-36.12 28.984-36.12 12.87 0 22.357 10.433 22.488 28.036v2.983h-36.23zm24.69-2.983v-4.68c0-13.967-5.595-19.44-11.32-19.44-9.707 0-13.77 11.458-13.91 19.28-.01.13-.01.271-.01.402v4.438h25.24z"/></svg>