<?xml version="1.0" encoding="UTF-8" standalone="no"?>
<!DOCTYPE svg PUBLIC "-//W3C//DTD SVG 1.1//EN" "http://www.w3.org/Graphics/SVG/1.1/DTD/svg11.dtd">
<svg width="100%" height="100%" viewBox="0 0 500 220" version="1.1" xmlns="http://www.w3.org/2000/svg" xmlns:xlink="http://www.w3.org/1999/xlink" xml:space="preserve" xmlns:serif="http://www.serif.com/" style="fill-rule:evenodd;clip-rule:evenodd;stroke-linejoin:round;stroke-miterlimit:2;">
    <path d="M29.707,72.296L57.913,72.296L64.023,89.642L52.843,100.597L90.54,100.597L81.7,88.99L53.755,11.26L35.426,11.26L41.796,26.65L19.568,89.511L8,100.597L34.646,100.597L23.468,90.164L29.707,72.296ZM43.875,32.128L56.613,68.645L31.007,68.645L43.875,32.128ZM130.414,100.597L165.249,100.597L155.371,90.685L155.371,55.994C155.371,43.734 149.131,35.127 138.473,35.127C133.273,35.127 124.825,39.17 119.626,47.256L119.626,35.388L95.189,44.126L104.028,54.168L104.028,90.685L94.149,100.597L128.984,100.597L119.626,90.685L119.626,49.865C123.785,44.256 128.724,43.343 130.934,43.343C138.343,43.343 139.773,49.734 139.773,60.428L139.773,90.685L130.414,100.597Z" style="fill:rgb(255,223,136);fill-rule:nonzero;"/>
    <path d="M169.64,44.126L178.478,54.168L178.478,89.381L168.86,100.597L203.695,100.597L194.076,89.381L194.076,35.388L169.639,44.126L169.64,44.126Z" style="fill:rgb(255,223,136);"/>
    <path d="M173.67,16.82L184.149,13.575L194.628,16.82L184.148,28.716L173.67,16.82ZM232.522,44.909L232.522,35.388L208.086,44.126L216.924,54.168L216.924,90.685L207.306,100.597L242.141,100.597L232.522,90.685L232.522,47.908C236.552,43.604 239.282,42.691 242.791,42.691C249.03,42.691 252.279,48.039 252.279,59.124L252.279,90.816L242.791,100.597L277.626,100.597L268.007,90.685L267.877,90.685L267.877,53.907C267.877,52.082 267.747,50.256 267.487,48.56C271.777,43.735 274.637,42.691 278.276,42.691C284.645,42.691 287.764,48.169 287.764,59.124L287.764,90.816L278.276,100.597L313.111,100.597L303.492,90.685L303.362,90.685L303.362,55.994C303.362,43.865 295.953,35.127 285.815,35.127C278.795,35.127 271.517,39.431 266.317,46.604C263.847,39.692 257.609,35.127 250.33,35.127C244.09,35.127 237.981,38.518 232.522,44.909ZM346.486,89.642L346.486,100.597L371.832,100.597L362.214,92.12L362.084,92.12L362.084,46.604L364.944,36.692L316.46,36.692L316.46,57.56L317.37,57.56C325.169,44.518 331.148,39.171 338.167,39.171C344.537,39.171 346.486,43.475 346.486,58.864C321.659,68.776 313.341,75.688 313.341,86.904C313.341,95.773 318.41,101.902 326.469,101.902C332.058,101.902 336.867,99.033 346.486,89.642ZM346.486,61.602L346.486,86.512C342.326,90.816 339.856,91.598 337.387,91.598C332.707,91.598 330.498,88.729 330.498,82.599C330.498,74.253 334.658,67.471 346.486,61.602ZM384.831,43.213L384.831,89.381L375.213,100.597L410.048,100.597L400.429,89.381L400.429,8.001L375.993,15.434L384.831,25.476L384.831,30.432L375.993,33.171L384.831,43.213ZM94.15,155.623L95.32,178.588C100.261,180.675 109.104,181.588 115.607,181.588C125.881,181.588 141.096,175.718 141.096,160.581C141.096,136.702 105.463,142.574 105.463,129.134C105.463,124.045 108.584,120.653 114.046,120.522C122.369,120.392 130.172,126.655 134.854,135.137L135.634,135.267L135.634,113.607L130.822,116.347L116.517,116.347C103.252,116.347 94.799,124.828 94.799,134.484C94.799,160.32 129.262,152.752 129.262,168.149C129.262,174.021 124.84,176.63 119.508,176.63C108.844,176.63 98.571,166.844 95.189,155.623L94.149,155.623L94.15,155.623ZM177.273,169.295L177.273,180.251L202.619,180.251L193.001,171.774L192.871,171.774L192.871,126.258L195.731,116.346L147.247,116.346L147.247,137.213L148.157,137.213C155.956,124.171 161.935,118.824 168.954,118.824C175.324,118.824 177.273,123.128 177.273,138.517C152.446,148.429 144.128,155.341 144.128,166.557C144.128,175.426 149.197,181.555 157.256,181.555C162.845,181.555 167.654,178.686 177.273,169.295ZM177.273,141.256L177.273,166.166C173.113,170.47 170.643,171.252 168.174,171.252C163.494,171.252 161.285,168.383 161.285,162.253C161.285,153.907 165.445,147.125 177.273,141.256ZM224.651,156.254L224.651,116.216L199.305,116.216L209.054,126.258L209.054,160.688C209.054,172.948 215.293,181.555 225.951,181.555C233.231,181.555 239.209,177.121 243.239,170.6L243.239,181.034L267.675,180.251L258.837,170.861L258.837,116.216L233.62,116.216L243.239,126.258L243.239,167.078C240.379,170.991 236.869,173.208 233.49,173.208C226.081,173.208 224.651,166.818 224.651,156.254ZM325.945,116.346L302.937,116.346L314.766,124.563L300.338,160.558L286.819,124.693L296.309,116.346L261.993,116.346L269.272,124.563L292.539,183.12L295.139,183.12L318.665,124.563L325.945,116.346ZM359.609,169.295L359.609,180.251L384.955,180.251L375.337,171.774L375.207,171.774L375.207,126.258L378.067,116.346L329.583,116.346L329.583,137.213L330.493,137.213C338.292,124.171 344.271,118.824 351.29,118.824C357.66,118.824 359.609,123.128 359.609,138.517C334.782,148.429 326.464,155.341 326.464,166.557C326.464,175.426 331.533,181.555 339.592,181.555C345.181,181.555 349.99,178.686 359.609,169.295ZM359.609,141.256L359.609,166.166C355.449,170.47 352.979,171.252 350.51,171.252C345.83,171.252 343.621,168.383 343.621,162.253C343.621,153.907 347.781,147.125 359.609,141.256ZM438.667,105.057L438.147,104.927L421.64,116.925C420.47,116.534 419.56,116.273 416.05,116.273C400.712,116.273 388.234,127.098 388.234,140.923C388.234,149.399 393.044,156.311 400.972,159.572C392.264,164.137 388.234,169.614 388.234,174.831C388.234,179.656 391.614,183.569 396.034,185.395C389.014,188.395 384.984,191.655 384.984,197.263C384.984,205.479 394.734,212 409.681,212C429.568,212 441.527,198.437 441.527,183.178C441.527,178.352 440.357,175.483 438.537,172.483L405.912,172.483C401.622,172.483 398.762,170.918 398.762,166.875C398.762,164.528 399.672,162.572 403.572,160.355C405.002,161.007 406.822,161.398 410.722,161.398C426.189,161.398 438.407,149.921 438.407,136.228C438.407,131.402 436.847,127.098 433.857,123.577C436.847,117.317 438.017,112.752 438.667,105.057ZM410.461,119.012C416.571,119.012 421.64,129.445 421.64,144.052C421.64,153.182 420.21,158.92 415.53,158.92C409.421,158.92 404.872,148.226 404.872,132.967C404.872,124.489 405.652,119.012 410.462,119.012L410.461,119.012ZM399.153,187.221L429.958,187.221C431.258,188.525 431.778,192.307 431.778,194.654C431.778,204.305 421.77,209.652 411.501,209.652C400.193,209.652 394.863,204.175 394.863,196.089C394.863,191.916 396.293,189.438 399.153,187.221Z" style="fill:rgb(255,223,136);fill-rule:nonzero;"/>
    <path d="M456.764,147.17C458.845,162.132 467.272,168.448 474.408,168.448C480.653,168.448 488.448,164.009 490.4,158.537L492.352,159.32C487.668,171.19 478.441,183.179 465.571,183.179C451.139,183.179 441.521,167.926 441.521,152.271C441.521,135.451 451.92,116.151 470.505,116.151C483.375,116.151 492.862,126.584 492.993,144.187L492.993,147.17L456.763,147.17L456.764,147.17ZM481.454,144.187L481.454,139.507C481.454,125.54 475.859,120.067 470.134,120.067C460.427,120.067 456.364,131.525 456.224,139.347C456.214,139.477 456.214,139.618 456.214,139.749L456.214,144.187L481.454,144.187Z" style="fill:rgb(255,223,136);"/>
</svg>
